<?xml version="1.0" standalone="no"?>
<!DOCTYPE svg PUBLIC "-//W3C//DTD SVG 20010904//EN"
 "http://www.w3.org/TR/2001/REC-SVG-20010904/DTD/svg10.dtd">
<svg version="1.0" xmlns="http://www.w3.org/2000/svg"
 width="742.000000pt" height="741.000000pt" viewBox="0 0 742.000000 741.000000"
 preserveAspectRatio="xMidYMid meet">

<g transform="translate(0.000000,741.000000) scale(0.100000,-0.100000)"
fill="#000000" stroke="none">
<path d="M3425 7390 c-280 -27 -502 -63 -678 -111 -432 -117 -805 -287 -1157
-528 -131 -90 -141 -96 -168 -122 -9 -8 -33 -26 -52 -40 -159 -109 -512 -482
-639 -674 -25 -38 -49 -71 -53 -73 -5 -2 -8 -8 -8 -13 0 -6 -11 -22 -25 -37
-14 -15 -25 -30 -25 -35 0 -10 -42 -71 -52 -75 -5 -2 -8 -8 -8 -13 0 -5 -27
-54 -59 -108 -234 -387 -410 -905 -465 -1371 -52 -436 -45 -728 25 -1160 51
-310 168 -660 330 -982 134 -270 228 -413 471 -724 249 -316 640 -643 998
-831 526 -278 909 -402 1430 -465 168 -20 665 -17 835 5 251 32 382 57 592
113 428 114 862 322 1195 573 97 73 163 124 168 130 3 3 28 24 55 46 99 79
371 364 458 479 12 15 34 42 48 60 34 42 119 165 119 173 0 4 9 16 19 27 10
12 55 80 99 152 280 458 470 1043 512 1574 22 293 10 679 -31 939 -54 347
-174 721 -332 1040 -79 157 -221 403 -238 409 -5 2 -9 8 -9 14 0 5 -10 24 -22
41 -13 17 -27 39 -33 48 -20 33 -160 215 -215 279 -127 150 -317 339 -424 425
-20 17 -47 40 -59 53 -12 13 -38 33 -57 45 -41 25 -44 27 -90 65 -54 44 -174
122 -290 189 -433 249 -864 392 -1390 464 -175 23 -617 34 -775 19z m490 -240
c301 -21 486 -49 720 -110 486 -127 986 -393 1335 -711 253 -231 453 -457 596
-676 88 -134 234 -389 276 -481 174 -385 247 -630 304 -1020 22 -152 26 -213
27 -437 1 -275 -8 -378 -49 -605 -85 -462 -232 -849 -477 -1252 -111 -184
-309 -438 -459 -590 -425 -428 -942 -732 -1520 -892 -341 -95 -587 -128 -953
-128 -333 -1 -559 23 -827 86 -396 94 -880 314 -1218 556 -474 338 -866 814
-1110 1348 -129 282 -195 477 -249 737 -54 257 -66 387 -66 735 0 364 7 440
70 725 54 243 118 438 215 650 74 164 92 199 213 415 229 407 583 787 1002
1072 372 253 815 438 1240 517 336 63 624 81 930 61z"/>
<path d="M3457 7002 c-48 -1 -85 -6 -83 -11 3 -4 -6 -6 -20 -3 -33 6 -204 -18
-204 -29 0 -5 15 -9 33 -9 31 0 34 -3 35 -30 0 -23 -4 -30 -19 -30 -10 0 -19
-4 -19 -10 0 -5 -9 -10 -20 -10 -11 0 -20 4 -20 10 0 5 -15 14 -32 19 -21 6
-26 10 -13 10 17 1 17 3 5 11 -12 7 -8 10 15 11 17 0 24 3 16 6 -11 5 -11 7 0
15 13 9 -7 7 -71 -6 -8 -2 -35 -7 -60 -11 -147 -22 -483 -128 -676 -213 -239
-105 -509 -261 -624 -361 -29 -25 -32 -30 -15 -30 242 -3 1831 -5 1808 -3 -18
2 -33 5 -33 8 0 10 26 50 37 57 7 4 10 14 7 21 -7 18 12 30 22 15 5 -8 3 -9
-7 -4 -8 5 -11 4 -6 -1 5 -5 14 -9 20 -9 7 -1 11 -6 10 -12 -1 -5 8 -10 20 -9
12 1 31 -7 41 -16 22 -20 32 -22 41 -8 3 6 0 10 -7 10 -7 0 -35 16 -61 36
-101 74 -133 223 -72 333 16 29 45 66 64 82 40 32 118 52 170 43 39 -7 112
-46 131 -69 7 -8 17 -12 24 -8 6 3 8 3 4 -2 -4 -4 2 -23 13 -42 29 -46 36
-135 16 -204 -28 -93 -131 -178 -219 -179 -44 0 -70 -9 -62 -21 8 -14 66 -10
99 7 16 8 38 14 50 13 34 -2 41 1 25 12 -13 9 -13 10 0 6 8 -2 14 -12 14 -21
-1 -11 6 -16 25 -16 15 0 32 -5 37 -10 16 -16 1629 -14 1654 3 14 8 20 23 20
46 0 28 3 33 19 28 14 -3 18 -1 14 9 -3 8 -9 14 -14 14 -6 0 -33 17 -62 39
-65 48 -334 196 -447 246 -211 92 -601 215 -686 215 -14 0 -33 4 -42 9 -19 10
-112 22 -112 15 0 -3 7 -12 15 -20 8 -9 15 -11 15 -5 0 6 17 10 38 10 23 -1
28 -3 15 -6 -13 -2 -23 -8 -23 -13 0 -5 -8 -11 -17 -13 -10 -2 -8 -3 5 -2 16
2 22 -2 18 -11 -4 -10 4 -13 32 -12 70 2 82 -1 82 -22 0 -17 7 -20 40 -20 22
0 40 -4 40 -10 0 -5 9 -10 19 -10 11 0 23 -4 26 -10 4 -6 -5 -10 -19 -10 -14
0 -26 5 -26 10 0 14 -37 12 -43 -2 -4 -10 -8 -9 -17 2 -9 11 -13 12 -17 3 -6
-15 -83 -18 -83 -3 0 6 -9 10 -21 10 -19 0 -21 -5 -19 -57 3 -79 3 -81 -20
-88 -11 -3 -20 -13 -20 -21 0 -10 -7 -13 -25 -8 -20 5 -31 0 -50 -20 -32 -35
-31 -37 7 -24 21 7 33 8 35 1 2 -6 66 -8 171 -6 123 2 163 0 152 -8 -15 -11
-1 -10 80 7 19 4 30 2 30 -4 0 -8 9 -8 31 0 17 6 45 8 64 5 25 -4 38 -1 51 14
18 20 17 20 -6 11 -14 -4 -59 -5 -100 -2 -74 7 -74 7 -17 8 56 2 57 2 57 32 0
28 3 30 36 30 40 0 77 16 69 31 -4 5 -1 9 6 9 8 0 8 4 -1 15 -8 10 -9 15 -2
15 6 0 9 7 6 15 -6 16 7 21 20 8 4 -5 24 -14 44 -20 22 -7 26 -11 10 -8 -28 5
-46 -9 -27 -21 8 -4 9 -3 5 4 -9 15 -9 15 34 1 19 -6 52 -12 73 -15 43 -4 88
-29 65 -37 -7 -2 -3 -2 10 0 12 2 22 -2 22 -8 0 -6 7 -9 15 -6 8 4 17 2 20 -3
4 -6 -6 -10 -21 -10 -35 0 -28 -7 13 -13 19 -3 34 0 37 6 3 9 5 8 5 0 1 -7 6
-13 12 -13 21 0 38 -28 33 -55 -4 -22 -3 -24 10 -13 10 9 11 15 2 21 -7 6 -6
7 4 4 8 -2 14 -11 12 -20 -2 -10 7 -17 25 -19 15 -2 -45 -2 -134 0 l-163 5 0
-38 c0 -30 -3 -36 -16 -31 -9 3 -18 6 -20 6 -2 0 -4 7 -4 15 0 8 -6 15 -14 15
-8 0 -21 3 -30 6 -11 4 -16 1 -16 -10 0 -9 -4 -16 -10 -16 -5 0 -7 7 -4 15 9
23 -12 18 -28 -7 l-15 -23 -352 -3 -351 -3 0 33 c0 51 -11 80 -26 74 -10 -4
-14 3 -14 20 0 24 1 24 19 7 10 -10 20 -25 23 -33 3 -9 7 -10 11 -4 3 6 -3 21
-14 32 -15 17 -16 22 -5 22 8 0 19 -6 23 -14 7 -12 11 -12 28 0 19 14 19 14
-5 12 -25 -3 -25 -2 -28 80 -2 64 -6 82 -17 82 -8 0 -15 5 -15 11 0 14 -55 69
-69 69 -6 0 -11 5 -11 10 0 6 5 10 11 10 6 0 5 6 -3 14 -54 57 -57 55 65 49
123 -6 143 1 32 11 -38 3 -122 11 -185 17 -104 9 -235 9 -483 1z m-4 -19 c-7
-2 -19 -2 -25 0 -7 3 -2 5 12 5 14 0 19 -2 13 -5z m-388 -63 c-3 -5 -12 -10
-18 -10 -7 0 -6 4 3 10 19 12 23 12 15 0z m1320 0 c15 -6 9 -8 -22 -7 -24 1
-37 5 -30 9 15 9 26 9 52 -2z m-1360 -10 c3 -5 -1 -10 -9 -10 -9 0 -16 5 -16
10 0 6 4 10 9 10 6 0 13 -4 16 -10z m824 -45 c15 -15 14 -16 -13 -11 -16 3
-32 10 -36 16 -4 7 -10 11 -14 10 -4 -1 -12 1 -19 4 -6 3 5 4 27 2 21 -2 46
-12 55 -21z m-789 -5 c0 -5 18 -10 40 -10 22 0 40 -4 40 -10 0 -5 -13 -10 -30
-10 -23 0 -30 -4 -30 -20 0 -11 -4 -20 -10 -20 -5 0 -10 9 -10 20 0 18 -7 20
-60 20 -53 0 -60 2 -60 20 0 18 7 20 60 20 33 0 60 -4 60 -10z m160 -35 c0
-21 -5 -25 -30 -25 l-30 0 22 25 c12 14 25 25 30 25 4 0 8 -11 8 -25z m1435 8
c-19 -15 -19 -15 7 -9 14 3 37 2 50 -3 17 -7 6 -9 -44 -9 -74 1 -86 9 -35 26
44 14 45 14 22 -5z m-1758 1 c-3 -3 -12 -4 -19 -1 -8 3 -5 6 6 6 11 1 17 -2
13 -5z m-247 -14 c0 -5 -4 -10 -10 -10 -5 0 -10 5 -10 10 0 6 5 10 10 10 6 0
10 -4 10 -10z m2130 -25 c10 -26 35 -34 43 -12 3 6 4 -1 2 -18 -1 -16 -3 -36
-4 -42 -1 -16 -22 -16 -56 -1 -20 9 -25 18 -25 49 0 31 6 42 28 48 1 1 7 -10
12 -24z m-1480 5 c0 -5 -5 -10 -11 -10 -5 0 -7 5 -4 10 3 6 8 10 11 10 2 0 4
-4 4 -10z m200 0 c-13 -9 -13 -11 0 -20 11 -7 11 -10 2 -10 -7 0 -10 -4 -7
-10 3 -6 -1 -7 -9 -4 -19 7 -19 9 -6 35 6 10 16 19 23 19 8 0 6 -4 -3 -10z
m-940 -19 l-25 -8 25 -6 c15 -3 8 -5 -17 -4 -24 2 -43 -1 -43 -5 0 -5 -17 -8
-37 -7 l-38 1 55 18 c30 10 66 18 80 18 l25 0 -25 -7z m657 -6 c7 -2 17 -22
24 -44 10 -32 9 -44 -1 -56 -16 -19 -54 -19 -70 0 -7 8 -17 12 -22 9 -6 -4 -5
-10 3 -16 11 -7 9 -8 -4 -4 -10 3 -30 6 -43 6 -20 0 -24 5 -24 30 0 19 5 30
14 30 8 0 18 9 21 21 4 13 12 18 22 15 11 -4 13 -2 10 9 -5 11 0 13 26 9 18
-3 37 -7 44 -9z m1768 -25 c3 -6 -1 -7 -9 -4 -18 7 -21 14 -7 14 6 0 13 -4 16
-10z m-2478 -23 c-10 -21 -12 -22 -27 -8 -14 15 -14 17 5 23 32 10 34 9 22
-15z m66 16 c-7 -2 -19 -2 -25 0 -7 3 -2 5 12 5 14 0 19 -2 13 -5z m-105 -53
c-11 -17 -38 -28 -38 -16 0 18 15 36 31 36 17 0 18 -3 7 -20z m-153 -30 c-3
-5 -14 -10 -23 -9 -14 0 -13 2 3 9 27 11 27 11 20 0z m2233 -17 c-15 -2 -42
-2 -60 0 -18 2 -6 4 27 4 33 0 48 -2 33 -4z m65 0 c-7 -2 -19 -2 -25 0 -7 3
-2 5 12 5 14 0 19 -2 13 -5z m-1983 -29 c0 -2 -9 0 -20 6 -11 6 -20 13 -20 16
0 2 9 0 20 -6 11 -6 20 -13 20 -16z m537 20 c-3 -3 -12 -4 -19 -1 -8 3 -5 6 6
6 11 1 17 -2 13 -5z m1162 -10 c8 -7 -64 -2 -89 6 -16 6 -6 7 30 3 30 -3 57
-7 59 -9z m-1446 -1 c-13 -2 -33 -2 -45 0 -13 2 -3 4 22 4 25 0 35 -2 23 -4z
m1534 1 c-3 -3 -12 -4 -19 -1 -8 3 -5 6 6 6 11 1 17 -2 13 -5z m70 0 c-3 -3
-12 -4 -19 -1 -8 3 -5 6 6 6 11 1 17 -2 13 -5z m103 -4 c11 -8 7 -9 -15 -4
-37 8 -45 14 -19 14 10 0 26 -5 34 -10z m-1430 -10 c-14 -4 -34 -8 -45 -8 -16
0 -15 2 5 8 14 4 34 8 45 8 16 0 15 -2 -5 -8z m-387 -7 c-7 -2 -21 -2 -30 0
-10 3 -4 5 12 5 17 0 24 -2 18 -5z m90 0 c-7 -2 -21 -2 -30 0 -10 3 -4 5 12 5
17 0 24 -2 18 -5z m150 0 c-7 -2 -19 -2 -25 0 -7 3 -2 5 12 5 14 0 19 -2 13
-5z m2307 -19 c0 -2 -9 0 -20 6 -11 6 -20 13 -20 16 0 2 9 0 20 -6 11 -6 20
-13 20 -16z m-2840 -4 c0 -5 -4 -10 -10 -10 -5 0 -10 5 -10 10 0 6 5 10 10 10
6 0 10 -4 10 -10z m824 4 c11 -4 16 -19 16 -45 l0 -39 -357 2 -357 3 -13 24
c-8 17 -9 31 -2 43 9 17 32 18 354 18 189 0 350 -3 359 -6z m1989 -61 c-7 -2
-19 -2 -25 0 -7 3 -2 5 12 5 14 0 19 -2 13 -5z m136 -22 c10 -7 7 -9 -12 -8
-14 1 -23 4 -21 6 2 2 -2 11 -9 19 -10 13 -9 14 8 4 11 -6 26 -16 34 -21z
m-3009 9 c0 -5 -18 -10 -40 -10 -22 0 -40 5 -40 10 0 6 18 10 40 10 22 0 40
-4 40 -10z m2480 -4 c0 -2 -9 -6 -20 -9 -11 -3 -20 -1 -20 4 0 5 9 9 20 9 11
0 20 -2 20 -4z m388 -13 c-10 -2 -26 -2 -35 0 -10 3 -2 5 17 5 19 0 27 -2 18
-5z m-2915 -22 c7 -27 -3 -37 -42 -39 -51 -4 -71 6 -71 34 0 22 3 24 54 24 44
0 55 -3 59 -19z m45 -5 c3 -12 -1 -17 -10 -14 -7 3 -15 13 -16 22 -3 12 1 17
10 14 7 -3 15 -13 16 -22z m2722 5 c0 -16 -11 -20 -75 -26 -61 -5 -80 -4 -100
9 -44 29 -29 36 75 36 91 0 100 -2 100 -19z m360 -3 c0 7 5 10 11 6 8 -5 8 -9
-1 -14 -9 -6 -7 -11 8 -19 29 -16 37 -14 21 6 -13 15 -12 15 9 2 12 -8 20 -20
17 -27 -3 -8 -5 -22 -5 -33 0 -10 -4 -19 -10 -19 -14 0 -12 33 3 50 10 12 9
12 -4 2 -13 -10 -19 -9 -29 3 -10 12 -16 13 -27 4 -20 -17 -36 2 -27 35 6 25
7 25 20 9 9 -12 13 -13 14 -5z m-2012 -53 c-3 -3 -9 2 -12 12 -6 14 -5 15 5 6
7 -7 10 -15 7 -18z m1452 5 c0 -5 -9 -10 -20 -10 -11 0 -20 5 -20 10 0 6 9 10
20 10 11 0 20 -4 20 -10z"/>
<path d="M3200 6760 c0 -5 5 -10 10 -10 6 0 10 5 10 10 0 6 -4 10 -10 10 -5 0
-10 -4 -10 -10z"/>
<path d="M5470 6446 c0 -9 5 -16 10 -16 6 0 10 4 10 9 0 6 -4 13 -10 16 -5 3
-10 -1 -10 -9z"/>
<path d="M3648 6740 c-43 -23 -78 -76 -78 -117 0 -30 38 -97 69 -120 22 -17
86 -16 120 2 74 38 99 109 64 182 -32 68 -104 90 -175 53z"/>
<path d="M4836 6674 c-9 -24 -8 -25 14 -12 23 15 26 28 6 28 -8 0 -17 -7 -20
-16z"/>
<path d="M4758 6643 c7 -3 16 -2 19 1 4 3 -2 6 -13 5 -11 0 -14 -3 -6 -6z"/>
<path d="M3600 6360 c13 -9 13 -10 0 -10 -13 0 -13 -1 0 -10 8 -5 21 -10 29
-10 11 0 10 5 -4 20 -10 11 -23 20 -29 20 -6 0 -4 -5 4 -10z"/>
<path d="M5705 6340 c-4 -6 3 -10 14 -10 25 0 27 6 6 13 -8 4 -17 2 -20 -3z"/>
<path d="M3518 6225 c-2 -2 -452 -5 -1001 -6 l-999 -3 -76 -74 c-76 -72 -77
-74 -52 -83 20 -8 22 -12 10 -19 -9 -6 -17 -5 -22 3 -6 9 -8 8 -8 -3 0 -12 -2
-12 -9 -2 -6 11 -10 10 -15 -3 -6 -16 21 -16 376 -11 465 8 1504 8 1573 0 48
-5 49 -5 25 10 -24 15 -24 15 21 10 36 -5 47 -3 52 9 9 23 44 40 44 21 0 -7
-3 -14 -7 -14 -4 0 -7 -6 -7 -14 0 -8 6 -12 14 -9 7 3 10 9 7 14 -3 5 1 9 9 9
20 0 41 26 27 35 -5 3 -10 11 -10 18 0 6 6 3 13 -7 12 -16 17 -15 71 18 67 40
109 51 169 43 33 -5 38 -3 23 5 -21 12 -78 14 -140 6 -32 -4 -40 -1 -48 18
-10 21 -31 37 -40 29z m42 -71 c0 -8 -19 -13 -24 -6 -3 5 1 9 9 9 8 0 15 -2
15 -3z m-1223 -100 c-3 -3 -12 -4 -19 -1 -8 3 -5 6 6 6 11 1 17 -2 13 -5z m80
0 c-3 -3 -12 -4 -19 -1 -8 3 -5 6 6 6 11 1 17 -2 13 -5z m80 -10 c-3 -3 -12
-4 -19 -1 -8 3 -5 6 6 6 11 1 17 -2 13 -5z m590 0 c-3 -3 -12 -4 -19 -1 -8 3
-5 6 6 6 11 1 17 -2 13 -5z"/>
<path d="M4885 6220 c-517 -4 -941 -7 -942 -8 -2 -1 -3 -6 -3 -11 0 -9 46 -7
150 3 l35 4 -30 -13 c-17 -8 -23 -14 -13 -15 9 0 24 -8 34 -17 13 -13 19 -14
22 -5 5 15 122 17 122 2 0 -5 -18 -10 -40 -10 -22 0 -40 -4 -40 -10 0 -6 33
-10 80 -10 47 0 80 4 80 10 0 6 18 10 40 10 39 0 53 -12 28 -24 -10 -5 -10 -7
0 -12 6 -3 12 -12 12 -20 0 -8 10 -14 23 -15 21 -1 21 -1 -3 -9 -14 -4 -43 -9
-65 -11 -28 -2 -18 -5 35 -9 l75 -6 -70 -1 c-38 0 -83 2 -100 6 l-30 7 40 7
c22 4 54 7 70 8 52 3 -63 17 -142 18 -42 1 -73 5 -73 11 0 6 -18 10 -40 10
-40 0 -55 -15 -22 -23 9 -3 0 -3 -20 -2 -21 2 -38 -1 -38 -6 0 -5 12 -9 28
-10 l27 -1 -30 -13 -30 -13 45 -6 c50 -6 1928 -15 1892 -8 -12 2 -20 8 -17 13
4 5 -3 9 -14 9 -11 0 -23 5 -26 10 -3 6 2 10 13 10 10 0 26 8 36 19 14 15 14
20 3 29 -8 7 -18 8 -22 4 -5 -4 -5 -2 -2 4 10 18 -76 95 -109 98 -16 1 -452
-1 -969 -4z m-705 -34 c0 -8 -61 -12 -66 -4 -3 4 11 8 30 8 20 0 36 -2 36 -4z
m1781 -99 c-13 -13 -26 -3 -16 12 3 6 11 8 17 5 6 -4 6 -10 -1 -17z m-1721
-29 c0 -9 4 -8 10 2 8 13 10 12 10 -2 0 -11 -8 -18 -20 -18 -11 0 -20 7 -20
15 0 8 5 15 10 15 6 0 10 -6 10 -12z m-67 -5 c-7 -2 -19 -2 -25 0 -7 3 -2 5
12 5 14 0 19 -2 13 -5z m710 -10 c-13 -2 -33 -2 -45 0 -13 2 -3 4 22 4 25 0
35 -2 23 -4z"/>
<path d="M3905 6070 c3 -5 8 -10 11 -10 2 0 4 5 4 10 0 6 -5 10 -11 10 -5 0
-7 -4 -4 -10z"/>
<path d="M3400 6051 c-7 -13 -7 -22 0 -26 5 -3 10 -3 11 2 0 4 2 16 4 26 4 22
-2 22 -15 -2z"/>
<path d="M3930 6061 c0 -6 4 -12 8 -15 5 -3 9 1 9 9 0 8 -4 15 -9 15 -4 0 -8
-4 -8 -9z"/>
<path d="M3960 6041 c0 -11 4 -23 10 -26 6 -4 7 1 3 11 -5 13 -3 15 8 9 12 -8
12 -6 0 8 -17 22 -21 21 -21 -2z"/>
<path d="M4010 6038 c13 -15 13 -31 1 -23 -5 3 -12 1 -15 -4 -4 -5 -2 -12 3
-15 5 -4 13 -1 16 5 4 6 17 14 29 19 20 9 20 9 1 9 -12 1 -26 6 -33 11 -9 7
-9 7 -2 -2z"/>
<path d="M6050 6030 c-13 -8 -12 -10 3 -10 9 0 17 5 17 10 0 12 -1 12 -20 0z"/>
<path d="M3634 6005 c-68 -34 -164 -113 -332 -272 -252 -239 -588 -511 -865
-699 -124 -85 -134 -87 -258 -48 -45 14 -91 23 -103 20 -11 -3 -86 -50 -166
-105 -285 -197 -597 -406 -730 -489 -121 -75 -223 -131 -680 -371 l-125 -66 0
-70 0 -70 85 -2 c229 -4 438 -14 565 -28 700 -75 1317 -241 1979 -532 284
-124 730 -361 884 -469 51 -36 70 -44 90 -39 15 4 123 61 241 127 453 255 927
466 1381 615 476 156 839 233 1273 267 92 7 170 15 173 18 2 3 2 46 -2 96 l-7
90 -116 52 c-159 72 -367 179 -681 352 -322 177 -392 219 -729 437 -145 94
-273 174 -285 177 -12 3 -84 -17 -168 -45 -80 -28 -154 -51 -164 -51 -26 1
-54 27 -156 146 -48 56 -138 148 -200 204 -62 56 -128 119 -147 139 -215 228
-404 421 -486 494 -92 82 -185 147 -211 147 -5 0 -32 -11 -60 -25z m72 -160
c13 -32 13 -38 -1 -51 -29 -29 -4 -215 38 -281 13 -21 36 -61 50 -89 l26 -52
-34 8 c-29 7 -37 4 -61 -21 -15 -15 -32 -26 -37 -22 -6 3 -7 1 -4 -4 8 -13
-17 -36 -28 -25 -5 4 -5 1 0 -6 8 -15 -82 -115 -97 -106 -4 3 -5 -2 -2 -10 3
-9 -5 -21 -23 -33 -15 -10 -35 -27 -44 -37 -8 -10 -28 -20 -43 -22 -34 -3 -37
-6 -39 -33 -1 -11 -5 -21 -10 -21 -4 0 -6 -4 -3 -9 3 -5 -12 -8 -33 -7 -22 0
-37 5 -34 9 2 4 12 5 21 3 22 -7 47 8 38 23 -4 6 -12 9 -17 5 -5 -3 -6 -10 -3
-16 5 -8 1 -9 -10 -5 -10 4 -22 7 -27 7 -5 0 -9 7 -9 15 0 8 -7 15 -15 15 -8
0 -14 -5 -12 -11 3 -14 -35 -21 -43 -9 -3 5 -19 -5 -35 -22 -17 -18 -23 -28
-15 -23 13 8 13 6 1 -8 -7 -9 -18 -14 -25 -10 -6 3 -8 3 -4 -2 4 -4 -4 -19
-18 -32 -22 -20 -24 -26 -13 -41 10 -12 7 -11 -10 3 l-24 20 12 -22 c6 -13 9
-23 5 -23 -3 0 -1 -7 6 -14 9 -11 18 -13 38 -5 l27 9 -30 -26 -30 -26 33 16
c33 17 43 51 21 73 -13 13 -3 53 13 53 5 0 8 -7 4 -15 -3 -8 2 -21 10 -30 22
-21 40 -19 21 3 -10 10 -17 23 -17 28 0 5 5 2 10 -6 7 -11 12 -12 18 -4 4 7
18 14 32 15 17 3 25 10 24 22 -2 17 0 17 15 3 22 -20 38 -21 22 -2 -10 11 -7
14 14 12 14 0 25 -1 25 -2 0 0 -19 -17 -41 -38 -23 -20 -39 -30 -36 -21 4 8 2
15 -3 15 -6 0 -10 -7 -10 -15 0 -8 -4 -15 -10 -15 -5 0 -8 -6 -6 -12 1 -7 1
-10 -1 -5 -8 14 -25 7 -19 -8 5 -13 2 -14 -17 -4 -22 12 -22 12 -4 -9 18 -20
18 -21 -35 -60 -29 -22 -66 -52 -83 -67 -32 -29 -94 -60 -102 -51 -3 3 6 8 21
12 25 6 28 12 30 62 1 13 9 29 19 36 17 13 25 32 8 21 -5 -3 -17 2 -25 11 -15
14 -16 14 -16 -3 0 -12 -3 -14 -8 -6 -5 8 -18 1 -41 -22 -18 -19 -30 -39 -26
-45 3 -6 2 -9 -3 -8 -15 4 -84 -90 -76 -103 5 -8 9 -8 14 1 5 8 10 8 14 2 3
-5 -1 -12 -9 -16 -8 -3 -17 0 -21 6 -5 7 -17 0 -33 -20 -14 -17 -51 -59 -81
-94 -52 -59 -49 -63 9 -10 14 13 26 29 26 34 0 6 8 14 18 17 10 4 19 11 20 16
1 6 5 9 9 8 5 -2 7 2 5 8 -4 18 40 20 54 3 12 -14 3 -27 -70 -96 -48 -45 -90
-77 -98 -74 -7 3 -13 1 -13 -5 0 -6 -5 -7 -11 -4 -6 4 -8 14 -4 22 5 14 3 14
-11 2 -10 -8 -12 -15 -5 -17 18 -6 13 -30 -9 -37 -10 -3 -53 -40 -95 -81 -42
-40 -81 -74 -86 -74 -18 0 2 42 52 115 27 39 77 111 112 160 88 127 247 378
243 383 -11 10 -59 -35 -284 -262 -133 -135 -247 -246 -252 -246 -5 0 -7 7 -4
15 10 25 -18 17 -56 -16 -34 -30 -27 -34 24 -14 32 14 7 -17 -62 -76 -96 -82
-174 -139 -183 -134 -4 3 -9 1 -11 -3 -1 -5 -55 -48 -118 -95 -145 -110 -333
-208 -372 -195 -10 4 114 111 211 182 14 11 53 43 87 72 33 29 92 79 131 111
284 235 667 600 741 705 l32 47 -52 -27 c-94 -48 -274 -176 -488 -348 -91 -73
-241 -167 -233 -147 4 11 3 14 -5 9 -16 -10 -15 6 1 23 10 11 9 12 -2 6 -9 -5
-12 -3 -9 6 3 8 2 23 -2 35 -9 21 -6 23 91 58 46 17 93 53 242 186 46 41 144
119 218 172 74 54 185 140 246 192 128 106 231 174 207 134 -19 -31 47 32 196
185 206 212 413 387 458 387 7 0 20 -16 28 -35z m48 -71 c3 -8 2 -12 -4 -9 -6
3 -10 10 -10 16 0 14 7 11 14 -7z m378 -373 c22 -21 27 -30 18 -36 -9 -5 -11
-4 -6 3 4 7 1 12 -7 12 -8 0 -22 11 -31 25 -22 33 -12 32 26 -4z m-284 -338
c72 -59 223 -196 372 -338 64 -60 165 -152 225 -204 61 -52 112 -98 113 -103
2 -4 11 -8 20 -8 8 0 12 -3 9 -7 -4 -3 7 -16 24 -29 26 -19 28 -23 11 -21 -11
0 -20 5 -19 10 1 5 -8 11 -21 13 -14 2 -21 0 -17 -6 3 -5 1 -10 -5 -10 -7 0
-10 7 -6 15 3 9 -5 20 -22 30 -27 16 -27 16 -2 10 22 -5 23 -5 7 6 -23 13 -34
4 -41 -35 -3 -16 -8 -31 -12 -35 -4 -3 -4 2 0 13 5 14 3 17 -11 12 -16 -5 -16
-5 1 8 10 8 15 19 11 25 -3 6 -1 11 5 11 6 0 8 5 4 11 -4 7 -9 7 -13 2 -3 -5
-15 -15 -26 -22 l-20 -13 20 7 c17 5 18 4 7 -7 -11 -11 -17 -9 -32 10 -10 12
-21 22 -25 22 -4 0 -32 24 -63 54 -32 29 -79 73 -107 96 -27 23 -125 113 -216
200 -148 141 -219 200 -241 200 -16 0 -7 -66 13 -99 11 -19 45 -64 75 -101 52
-64 69 -95 40 -71 -22 18 -66 -23 -67 -62 0 -27 -2 -29 -9 -12 -6 14 -9 5 -8
-32 1 -54 7 -60 54 -54 6 1 17 -5 23 -13 7 -8 19 -12 27 -9 10 4 14 -2 14 -21
0 -25 -3 -26 -52 -26 -38 0 -49 -3 -38 -10 10 -6 11 -10 3 -10 -7 0 -13 -6
-13 -12 0 -7 -21 -40 -47 -73 -26 -33 -40 -54 -31 -48 8 7 19 9 23 5 5 -4 5
-2 1 5 -3 6 -3 14 2 17 11 7 37 -11 37 -25 0 -7 17 -21 38 -31 20 -11 37 -26
37 -34 0 -11 16 -14 65 -14 50 0 63 -3 59 -14 -4 -9 3 -13 21 -13 14 0 35 -9
45 -18 22 -20 28 -8 8 15 -7 8 -3 6 10 -5 22 -18 22 -20 5 -33 -17 -13 -16
-13 6 -10 18 2 28 -5 42 -32 11 -19 19 -31 19 -26 0 5 9 1 20 -9 11 -10 19
-20 17 -22 -2 -1 69 -76 157 -165 88 -90 152 -155 141 -146 -12 10 -26 14 -33
9 -8 -4 -24 -7 -38 -5 -13 1 -26 -2 -29 -6 -6 -10 -35 -2 -35 10 0 4 10 7 23
6 14 -1 21 4 19 13 -2 8 3 11 12 8 9 -4 18 -1 22 5 4 6 3 8 -3 5 -13 -8 -37
19 -29 32 4 5 -2 10 -11 10 -42 1 -53 5 -51 17 2 7 -1 12 -7 11 -5 -1 -10 -7
-10 -14 0 -29 -56 -41 -80 -17 -8 9 -15 12 -15 8 0 -4 -11 3 -25 16 -14 13
-25 30 -25 38 0 9 -3 12 -6 9 -8 -8 -44 36 -44 53 0 6 -4 9 -9 6 -5 -3 -14 1
-21 9 -7 8 -9 15 -4 15 4 0 -1 7 -12 16 -18 15 -18 15 9 9 15 -3 27 -1 27 4 0
5 -11 11 -25 13 -14 3 -25 1 -25 -3 0 -5 -9 -9 -20 -9 -26 0 -56 -44 -41 -62
29 -34 69 -103 64 -111 -3 -5 -17 2 -32 15 l-26 23 24 -27 c13 -15 29 -24 35
-22 7 3 18 -7 24 -21 16 -35 15 -44 -3 -21 -8 11 -15 14 -15 8 0 -7 10 -21 23
-33 53 -48 76 -74 71 -78 -3 -3 -10 1 -15 9 -8 12 -10 10 -6 -8 5 -19 3 -21
-9 -11 -10 8 -14 8 -14 0 0 -6 -4 -11 -10 -11 -5 0 -7 7 -4 15 4 8 2 15 -4 15
-6 0 -13 -6 -15 -12 -3 -8 -6 -6 -6 5 -1 9 4 17 9 17 6 0 10 9 10 20 0 18 -2
18 -25 -5 -14 -12 -34 -22 -43 -20 -9 2 -21 4 -25 4 -5 1 -6 11 -3 24 3 12 3
16 0 9 -8 -17 -24 -5 -17 13 3 8 1 15 -4 15 -6 0 -15 11 -21 25 -15 32 -16 56
-2 35 8 -12 10 -10 11 10 1 14 2 32 3 40 1 8 5 21 9 28 6 8 1 12 -15 12 -18 0
-20 2 -8 10 8 5 23 7 34 4 12 -4 16 -2 12 5 -4 6 -13 11 -20 11 -7 0 -21 9
-32 21 -11 12 -26 18 -37 15 -13 -3 -17 0 -13 10 3 8 2 12 -3 9 -5 -3 -12 3
-14 12 -3 13 -5 11 -6 -7 l-2 -25 -11 25 c-9 21 -12 22 -15 7 -5 -18 -6 -18
-24 -1 -18 17 -19 16 -19 -22 0 -21 9 -75 20 -119 23 -91 25 -119 10 -95 -11
17 -13 10 -4 -14 3 -9 11 -13 18 -9 6 3 8 3 4 -2 -4 -4 -3 -14 2 -20 7 -9 3
-17 -15 -29 -21 -14 -25 -14 -25 -2 0 8 -4 17 -9 20 -5 4 -7 -4 -3 -16 5 -22
5 -22 -15 -5 -20 17 -20 17 -16 -10 l4 -28 -15 25 -15 25 -14 -35 c-8 -19 -18
-65 -22 -103 -5 -53 -11 -69 -27 -78 -15 -8 -23 -8 -32 1 -15 15 -16 47 -5
159 5 52 7 96 5 98 -14 14 -47 -25 -71 -84 -37 -92 -100 -205 -110 -196 -4 5
-5 3 -1 -4 3 -6 -8 -32 -24 -57 -32 -47 -50 -64 -50 -47 0 5 6 12 13 15 6 3 2
3 -10 0 -13 -3 -23 -1 -23 4 0 12 29 24 40 17 5 -3 12 0 16 6 4 8 3 9 -4 5 -8
-4 -12 0 -12 11 -1 17 -1 17 -11 0 -9 -16 -12 -16 -26 -2 -10 10 -13 24 -9 41
5 17 3 23 -4 19 -5 -3 -10 -4 -10 -1 0 3 32 72 71 153 81 168 149 334 149 363
0 30 -17 33 -37 4 -10 -14 -30 -40 -44 -57 -14 -18 -49 -71 -78 -120 -29 -48
-57 -85 -62 -82 -5 3 -6 0 -4 -8 3 -7 -3 -22 -15 -32 -11 -10 -20 -13 -20 -7
0 7 5 12 10 12 6 0 10 5 10 12 0 6 -9 3 -20 -7 -11 -10 -18 -26 -15 -35 3 -10
-9 -32 -29 -56 -27 -29 -35 -34 -36 -21 0 10 -5 15 -10 12 -6 -4 -8 -10 -5
-15 12 -20 -15 -49 -45 -48 -16 1 -27 5 -24 10 4 6 14 8 25 5 12 -3 21 3 27
22 6 14 13 35 17 46 7 16 5 18 -5 8 -11 -10 -16 -8 -25 10 -10 19 -6 29 26 72
61 83 113 186 119 237 4 29 3 45 -3 41 -6 -4 -8 3 -5 15 4 12 4 22 0 22 -6 0
-142 -91 -142 -95 0 -10 87 30 101 46 27 31 32 22 7 -13 -58 -82 -329 -312
-431 -365 -19 -10 -57 -30 -84 -45 -59 -31 -104 -39 -111 -19 -3 10 0 12 11 8
9 -3 19 -1 23 5 5 7 2 8 -7 3 -8 -5 -11 -4 -6 0 4 5 20 9 35 10 21 0 27 5 26
22 -1 14 3 20 12 16 8 -3 11 -10 7 -16 -3 -5 -1 -7 5 -3 5 3 12 2 14 -4 2 -6
8 -6 18 0 13 8 13 10 -2 10 -11 0 -15 6 -11 20 3 11 0 20 -6 20 -6 0 -8 -8 -4
-17 5 -15 3 -16 -8 -6 -11 11 -9 18 8 40 11 16 29 29 39 31 16 3 17 1 4 -7 -8
-6 -10 -11 -4 -11 5 0 19 7 30 16 10 8 13 13 7 9 -7 -3 -13 0 -13 7 0 17 40
43 59 39 13 -2 13 0 1 16 -8 10 -10 15 -6 11 5 -5 16 1 23 12 8 11 19 18 24
14 5 -3 8 -2 7 3 -1 4 65 76 148 158 152 152 284 312 361 440 23 38 38 71 33
73 -24 9 -450 -333 -450 -360 0 -5 37 24 82 66 46 41 84 73 86 72 6 -6 -199
-196 -293 -272 -71 -57 -75 -59 -75 -32 0 19 2 20 10 8 9 -13 13 -12 30 9 16
18 18 27 9 38 -10 11 -8 12 5 7 9 -4 16 -3 14 2 -1 5 3 18 9 30 10 17 9 21 -2
21 -8 0 -12 -4 -10 -8 6 -9 -24 -34 -32 -26 -3 4 -13 2 -22 -5 -9 -7 95 100
230 238 308 313 420 439 403 457 -12 12 -138 -79 -275 -198 -153 -133 -574
-475 -699 -567 -89 -66 -355 -221 -370 -216 -6 2 45 44 112 94 108 80 250 197
508 422 41 36 234 212 428 391 194 179 391 359 438 398 97 82 87 82 182 6z
m-398 13 c0 -2 -7 -9 -15 -16 -12 -10 -15 -10 -15 4 0 9 7 16 15 16 8 0 15 -2
15 -4z m1780 -221 c7 -8 17 -53 22 -101 5 -51 27 -140 54 -222 24 -75 47 -153
50 -172 l6 -35 -41 43 c-23 24 -41 47 -41 52 0 6 -4 10 -10 10 -17 0 -11 -18
13 -40 12 -12 22 -24 23 -28 0 -4 4 -15 9 -25 4 -11 3 -23 -4 -30 -8 -8 -11
-6 -11 9 0 17 -6 19 -80 16 -77 -3 -80 -3 -80 18 0 20 -4 22 -40 18 -37 -3
-40 -1 -56 34 -9 21 -23 38 -31 38 -7 0 -13 5 -13 10 0 6 -5 10 -11 10 -16 0
-39 26 -39 45 0 9 -4 13 -10 10 -5 -3 -19 -1 -30 5 -17 9 -20 8 -21 -12 -1
-13 -1 -29 0 -35 3 -22 -8 -14 -24 17 -27 53 -15 142 27 188 43 46 131 105
222 148 50 24 94 43 97 44 4 0 12 -7 19 -15z m-3165 -22 c-18 -76 -102 -202
-225 -337 -34 -37 -58 -72 -54 -78 4 -6 3 -8 -3 -5 -15 9 -56 -29 -47 -44 4
-7 3 -9 -3 -6 -17 10 -70 -45 -67 -68 2 -18 2 -19 -10 -3 -12 16 -14 16 -44
-2 -18 -11 -32 -17 -32 -14 0 3 -16 -11 -37 -31 -20 -19 -41 -35 -47 -35 -6 0
-4 6 4 13 35 29 250 278 250 290 0 4 -18 -4 -40 -18 -22 -14 -41 -25 -44 -25
-2 0 -35 -19 -72 -42 -120 -73 -286 -168 -295 -168 -4 0 -11 -5 -15 -12 -5 -7
-2 -9 9 -5 10 4 14 2 11 -6 -2 -7 -31 -26 -64 -43 -33 -17 -57 -27 -53 -21 4
6 0 8 -11 4 -10 -4 -22 -7 -28 -7 -6 0 -7 -7 -4 -16 3 -8 2 -12 -4 -9 -6 3
-10 2 -10 -3 0 -5 -22 -21 -48 -35 -35 -19 -51 -23 -62 -15 -13 8 -13 9 1 5 9
-3 16 1 16 8 0 8 -7 11 -15 7 -36 -14 20 42 91 92 41 28 101 71 133 96 33 25
106 77 164 115 93 63 174 118 555 381 50 34 94 63 99 63 4 1 5 -11 1 -26z
m989 -15 c-3 -4 -11 -5 -19 -1 -21 7 -19 12 4 10 11 0 18 -5 15 -9z m-100
-160 c-5 -8 -1 -9 12 -5 15 6 14 3 -5 -13 -18 -16 -27 -18 -38 -9 -11 10 -10
14 9 24 30 17 30 17 22 3z m1094 -105 c-15 -17 -14 -48 1 -39 4 3 8 -1 8 -8 0
-7 -6 -13 -13 -13 -7 0 -11 3 -9 7 2 3 0 12 -5 20 -6 10 -3 21 7 32 21 23 31
23 11 1z m-2031 -88 c0 -8 -4 -12 -9 -9 -4 3 -8 9 -8 15 0 5 4 9 8 9 5 0 9 -7
9 -15z m2025 -32 c10 -9 18 -21 18 -26 0 -6 -10 -1 -22 10 -13 11 -30 23 -38
26 -11 4 -10 6 4 6 11 1 28 -6 38 -16z m92 9 c3 -5 -1 -9 -9 -9 -8 0 -12 4 -9
9 3 4 7 8 9 8 2 0 6 -4 9 -8z m57 -19 c13 -16 12 -17 -3 -4 -17 13 -22 21 -14
21 2 0 10 -8 17 -17z m1424 -105 c28 -29 41 -44 29 -35 -11 10 -31 16 -43 15
-15 -2 -28 5 -39 22 l-16 25 27 -24 c35 -32 35 -16 0 21 -15 15 -23 28 -17 28
5 0 32 -24 59 -52z m-1085 27 c20 -24 6 -28 -15 -5 -10 11 -13 20 -8 20 6 0
16 -7 23 -15z m527 -10 c0 -8 -4 -12 -9 -9 -5 3 -6 10 -3 15 9 13 12 11 12 -6z
m-3177 1 c0 -2 -8 -10 -17 -17 -16 -13 -17 -12 -4 4 13 16 21 21 21 13z m-192
-41 c-3 -3 -9 2 -12 12 -6 14 -5 15 5 6 7 -7 10 -15 7 -18z m152 15 c0 -5 -4
-10 -10 -10 -5 0 -10 5 -10 10 0 6 5 10 10 10 6 0 10 -4 10 -10z m2740 -17 c0
-19 -13 -9 -16 12 -1 8 2 13 7 9 5 -3 9 -12 9 -21z m546 0 c-10 -10 -19 5 -10
18 6 11 8 11 12 0 2 -7 1 -15 -2 -18z m154 17 c13 -8 13 -10 0 -14 -19 -7 -47
-10 -84 -8 -50 3 -10 25 54 30 8 1 22 -2 30 -8z m593 -7 c9 -3 17 -9 17 -14 0
-5 -15 -2 -32 7 -39 19 -51 30 -23 19 11 -4 28 -10 38 -12z m-1542 -10 c13
-16 12 -17 -3 -4 -17 13 -22 21 -14 21 2 0 10 -8 17 -17z m-67 -49 c7 -19 2
-18 -19 6 -16 17 -16 20 -3 15 9 -4 19 -13 22 -21z m971 -14 c3 -5 1 -10 -4
-10 -6 0 -11 5 -11 10 0 6 2 10 4 10 3 0 8 -4 11 -10z m494 -4 c10 -12 8 -13
-8 -9 -12 3 -18 9 -15 14 7 12 10 11 23 -5z m-1428 -23 c13 -16 12 -17 -3 -4
-10 7 -18 15 -18 17 0 8 8 3 21 -13z m605 -65 c10 -15 -30 8 -45 26 -8 9 -18
13 -25 9 -6 -3 -8 -3 -4 2 4 4 2 15 -5 24 -6 9 7 1 30 -17 24 -19 46 -38 49
-44z m-3436 48 c0 -2 -8 -10 -17 -17 -16 -13 -17 -12 -4 4 13 16 21 21 21 13z
m3068 -70 c39 -32 72 -61 72 -64 0 -3 -8 2 -17 10 -10 9 -23 13 -30 11 -13 -5
-54 27 -48 38 3 4 -11 19 -30 33 -19 15 -35 32 -35 39 0 8 3 8 8 2 4 -6 40
-36 80 -69z m707 36 c-3 -3 -11 0 -18 7 -9 10 -8 11 6 5 10 -3 15 -9 12 -12z
m-840 -40 c-3 -3 -11 0 -18 7 -9 10 -8 11 6 5 10 -3 15 -9 12 -12z m-3415 -45
c0 -6 -3 -8 -6 -4 -4 3 -13 0 -20 -8 -32 -32 -217 -84 -200 -57 4 7 13 12 21
12 7 0 43 16 79 36 36 19 70 32 76 29 5 -3 10 -2 10 3 0 6 9 8 20 5 11 -3 20
-10 20 -16z m3460 13 c0 -5 -5 -10 -11 -10 -5 0 -7 5 -4 10 3 6 8 10 11 10 2
0 4 -4 4 -10z m1175 -48 c-3 -3 -11 0 -18 7 -9 10 -8 11 6 5 10 -3 15 -9 12
-12z m-1085 -32 c0 -5 -4 -10 -10 -10 -5 0 -10 5 -10 10 0 6 5 10 10 10 6 0
10 -4 10 -10z m37 -31 c-1 -10 -5 -19 -10 -19 -5 0 -7 7 -4 15 4 8 2 17 -3 20
-6 4 -10 11 -10 17 0 7 5 6 14 -1 8 -7 14 -21 13 -32z m-3221 16 c-11 -8 -25
-15 -30 -15 -6 1 0 7 14 15 32 19 40 18 16 0z m3325 1 c5 3 9 0 9 -6 0 -15
-23 -7 -26 8 -1 7 0 8 3 2 2 -5 9 -8 14 -4z m-3427 -5 c3 -5 -2 -8 -11 -7 -9
0 -18 -5 -21 -13 -3 -8 0 -11 7 -7 6 4 11 2 11 -3 0 -6 -16 -11 -35 -11 -19 0
-35 2 -35 4 0 5 63 46 72 46 4 0 9 -4 12 -9z m1586 -2 c0 -5 -4 -8 -9 -5 -4 3
-16 -3 -25 -13 -13 -14 -14 -20 -4 -28 7 -6 21 -9 30 -8 10 2 20 -1 23 -5 7
-11 -30 -32 -39 -23 -3 3 -6 -1 -6 -9 0 -8 -19 -28 -42 -44 -24 -16 -46 -33
-49 -38 -4 -5 -12 -5 -19 -1 -8 5 -11 4 -7 -2 4 -6 0 -13 -8 -17 -8 -3 -17 0
-21 6 -5 7 -2 8 6 3 9 -6 11 -4 5 5 -6 10 -11 10 -20 -3 -13 -18 -40 -23 -49
-8 -5 7 54 64 142 137 13 10 35 29 48 42 27 24 44 28 44 11z m1540 -144 c0
-27 -8 -35 -26 -28 -13 5 -19 34 -9 45 13 13 35 3 35 -17z m-50 -16 c0 -6 -4
-7 -10 -4 -5 3 -10 11 -10 16 0 6 5 7 10 4 6 -3 10 -11 10 -16z m-1715 -45
c20 -16 20 -16 -2 -10 -18 6 -21 4 -18 -13 2 -11 -1 -24 -7 -27 -6 -4 -8 -2
-4 4 3 6 2 13 -4 17 -6 4 -7 11 -4 17 4 7 2 8 -5 4 -6 -4 -8 -12 -5 -18 5 -7
2 -8 -6 -3 -9 5 -11 4 -6 -4 4 -6 1 -17 -6 -24 -20 -19 -109 -69 -114 -64 -6
6 89 83 98 80 5 -2 7 1 6 6 -3 8 41 50 52 50 3 0 14 -7 25 -15z m1615 -106
l23 -33 -23 20 -23 20 7 -25 c5 -17 4 -21 -2 -11 -6 8 -15 10 -23 6 -8 -5 -6
1 4 13 11 11 16 26 12 31 -14 24 3 9 25 -21z m-312 -3 c-3 -3 -9 2 -12 12 -6
14 -5 15 5 6 7 -7 10 -15 7 -18z m-698 -29 c0 -6 -5 -3 -11 6 -10 17 -39 14
-39 -4 0 -6 6 -5 15 2 9 7 15 8 15 2 0 -11 -27 -25 -49 -26 -8 -1 -15 -10 -17
-20 -1 -10 -9 -23 -16 -27 -12 -8 -4 -13 15 -10 5 1 6 -3 3 -8 -4 -5 -2 -12 4
-16 5 -3 10 -15 10 -26 0 -11 -4 -18 -10 -14 -5 3 -6 13 -3 21 5 14 3 14 -15
3 -15 -10 -18 -15 -9 -21 16 -10 -5 -44 -27 -42 -9 1 -13 -2 -10 -7 9 -16 -26
-22 -53 -10 l-25 12 26 26 c14 14 26 30 26 35 0 5 10 6 23 3 22 -7 22 -7 2 10
-11 9 -14 14 -7 10 6 -3 12 -1 12 5 0 6 12 22 26 35 15 14 23 25 18 25 -4 0
10 18 31 40 36 37 41 39 52 23 7 -9 13 -22 13 -27z m153 -171 c-3 -9 -8 -14
-10 -11 -3 3 -2 9 2 15 9 16 15 13 8 -4z m-18 -35 c-3 -5 -12 -10 -18 -10 -7
0 -6 4 3 10 19 12 23 12 15 0z m29 -16 c3 -8 2 -12 -4 -9 -6 3 -10 10 -10 16
0 14 7 11 14 -7z m-70 -25 c-12 -13 -15 -22 -7 -27 8 -5 7 -10 -2 -19 -6 -6
-17 -8 -23 -4 -7 4 -2 18 14 39 14 17 28 32 31 32 3 0 -2 -9 -13 -21z m104
-24 c-3 -3 -9 2 -12 12 -6 14 -5 15 5 6 7 -7 10 -15 7 -18z"/>
<path d="M3580 5230 c-6 -11 -8 -20 -6 -20 3 0 10 9 16 20 6 11 8 20 6 20 -3
0 -10 -9 -16 -20z"/>
<path d="M3368 5144 c-9 -8 6 -57 18 -61 6 -2 19 6 29 17 15 17 16 23 5 33 -7
6 -10 7 -7 2 3 -6 -4 -17 -15 -24 -18 -11 -20 -11 -15 3 4 9 2 16 -4 16 -6 0
-7 5 -4 10 7 11 2 14 -7 4z"/>
<path d="M3320 5100 c0 -5 5 -10 10 -10 6 0 10 5 10 10 0 6 -4 10 -10 10 -5 0
-10 -4 -10 -10z"/>
<path d="M3310 4969 c0 -5 5 -7 10 -4 6 3 10 8 10 11 0 2 -4 4 -10 4 -5 0 -10
-5 -10 -11z"/>
<path d="M3257 4953 c-10 -9 -9 -23 2 -23 5 0 11 7 15 15 5 15 -5 20 -17 8z"/>
<path d="M3210 4865 c-7 -8 -9 -15 -6 -15 4 0 14 7 22 15 9 8 11 15 6 15 -5 0
-15 -7 -22 -15z"/>
<path d="M3160 4835 c-14 -8 -20 -15 -15 -15 6 0 3 -5 -5 -10 -8 -5 -10 -10
-4 -10 6 0 21 11 34 25 27 28 25 30 -10 10z"/>
<path d="M3086 4775 c4 -8 10 -12 15 -9 11 6 2 24 -11 24 -5 0 -7 -7 -4 -15z"/>
<path d="M2547 4585 c-15 -14 -24 -25 -19 -25 5 0 19 11 32 25 30 32 23 32
-13 0z"/>
<path d="M2835 4561 c-3 -5 -2 -12 3 -15 5 -3 9 1 9 9 0 17 -3 19 -12 6z"/>
<path d="M2410 4475 c-10 -12 -10 -15 2 -15 8 0 15 7 15 15 0 8 -1 15 -2 15
-2 0 -8 -7 -15 -15z"/>
<path d="M2249 4343 c-13 -16 -12 -17 4 -4 16 13 21 21 13 21 -2 0 -10 -8 -17
-17z"/>
<path d="M2210 4315 c-10 -12 -10 -15 3 -15 19 0 31 16 18 24 -5 3 -14 -1 -21
-9z"/>
<path d="M2165 4281 c-3 -5 0 -13 6 -17 7 -4 9 -3 5 4 -3 5 0 13 6 15 9 4 10
6 1 6 -6 1 -14 -3 -18 -8z"/>
<path d="M3787 4610 c-4 -14 -1 -27 6 -32 16 -10 17 -6 8 27 -7 30 -7 30 -14
5z"/>
<path d="M4480 4456 c0 -2 7 -7 16 -10 8 -3 12 -2 9 4 -6 10 -25 14 -25 6z"/>
<path d="M4120 4155 c-10 -12 -9 -20 4 -40 9 -14 21 -23 26 -20 6 4 10 1 10
-5 0 -7 7 -10 15 -6 12 4 13 2 6 -13 -11 -20 -4 -61 11 -61 5 0 8 6 6 14 -2 8
2 14 7 13 6 -1 9 -8 8 -16 -1 -9 2 -10 10 -2 14 14 30 15 22 1 -3 -5 -1 -10 4
-10 6 0 11 3 11 8 0 10 -78 82 -90 82 -5 0 -10 9 -10 20 0 11 -5 20 -11 20 -6
0 -8 -9 -4 -20 8 -26 -1 -26 -15 1 -9 15 -8 24 1 35 6 8 9 14 6 14 -2 0 -10
-7 -17 -15z m73 -100 c-3 -9 -8 -14 -10 -11 -3 3 -2 9 2 15 9 16 15 13 8 -4z"/>
<path d="M4140 4010 c-13 -9 -13 -10 0 -11 8 -1 19 -1 24 0 5 1 6 -4 3 -12 -3
-8 -1 -20 4 -28 7 -12 7 6 0 54 -1 10 -13 9 -31 -3z"/>
<path d="M4263 3972 c0 -18 4 -35 9 -38 5 -3 8 -2 7 3 -3 19 2 33 12 33 6 0 8
-7 4 -17 -5 -15 -4 -16 6 -5 11 10 10 15 -4 29 -14 14 -17 15 -18 3 0 -10 -3
-8 -9 5 -6 16 -8 14 -7 -13z"/>
<path d="M4325 3943 c3 -7 1 -13 -4 -13 -6 0 -11 -9 -11 -20 0 -27 26 -25 41
3 6 12 8 19 4 15 -4 -4 -14 0 -22 10 -8 9 -12 11 -8 5z"/>
<path d="M4215 3920 c-4 -6 -1 -17 5 -25 14 -17 40 -20 40 -4 0 5 -4 8 -9 5
-5 -3 -15 2 -22 11 -12 15 -12 16 4 10 11 -4 16 -3 12 3 -8 13 -22 13 -30 0z"/>
<path d="M4024 3882 c4 -7 2 -21 -5 -30 -12 -15 -11 -15 6 0 16 15 17 20 6 30
-11 11 -13 10 -7 0z"/>
<path d="M4280 3880 c0 -5 5 -10 10 -10 6 0 10 5 10 10 0 6 -4 10 -10 10 -5 0
-10 -4 -10 -10z"/>
<path d="M4455 3801 c-3 -5 -1 -12 5 -16 5 -3 10 1 10 9 0 18 -6 21 -15 7z"/>
<path d="M3290 3754 c0 -7 -8 -15 -19 -19 -27 -8 -55 -41 -42 -50 16 -9 53 5
48 18 -2 6 7 22 20 35 27 27 28 29 8 29 -8 0 -15 -6 -15 -13z"/>
<path d="M4058 3758 c11 -14 17 -15 33 -5 12 8 15 13 7 16 -7 2 -14 -1 -16 -8
-3 -9 -8 -9 -20 1 -15 12 -16 11 -4 -4z"/>
<path d="M4140 3735 c0 -8 5 -15 10 -15 6 0 10 7 10 15 0 8 -4 15 -10 15 -5 0
-10 -7 -10 -15z"/>
<path d="M2925 3710 c-3 -5 -1 -10 4 -10 6 0 11 5 11 10 0 6 -2 10 -4 10 -3 0
-8 -4 -11 -10z"/>
<path d="M3290 3701 c0 -10 19 -25 25 -20 1 2 -3 10 -11 17 -8 7 -14 8 -14 3z"/>
<path d="M2850 3639 c0 -5 5 -7 10 -4 6 3 10 8 10 11 0 2 -4 4 -10 4 -5 0 -10
-5 -10 -11z"/>
<path d="M3416 3481 c-4 -7 -5 -15 -2 -18 9 -9 19 4 14 18 -4 11 -6 11 -12 0z"/>
<path d="M5006 4642 c-2 -4 4 -8 14 -8 10 0 16 4 14 8 -3 4 -9 8 -14 8 -5 0
-11 -4 -14 -8z"/>
<path d="M4971 4597 c-1 -11 -6 -15 -13 -11 -7 5 -8 3 -3 -5 10 -16 29 2 22
21 -4 8 -6 7 -6 -5z"/>
<path d="M5090 4570 c0 -5 5 -10 11 -10 5 0 7 5 4 10 -3 6 -8 10 -11 10 -2 0
-4 -4 -4 -10z"/>
<path d="M5128 4543 c7 -3 16 -2 19 1 4 3 -2 6 -13 5 -11 0 -14 -3 -6 -6z"/>
<path d="M5145 4510 c-3 -6 1 -7 9 -4 18 7 21 14 7 14 -6 0 -13 -4 -16 -10z"/>
<path d="M5224 4453 c2 -10 6 -17 10 -16 15 3 16 11 2 22 -12 10 -14 9 -12 -6z"/>
<path d="M5197 4423 c-13 -12 -7 -51 8 -56 20 -8 27 7 15 37 -10 28 -13 30
-23 19z"/>
<path d="M5050 4409 c0 -5 5 -7 10 -4 6 3 10 8 10 11 0 2 -4 4 -10 4 -5 0 -10
-5 -10 -11z"/>
<path d="M5237 4363 c-10 -12 -13 -23 -7 -23 5 0 10 5 10 10 0 14 28 12 33 -2
2 -7 8 -10 12 -5 5 4 0 15 -11 25 -19 18 -20 18 -37 -5z"/>
<path d="M4520 4106 c0 -2 7 -7 16 -10 8 -3 12 -2 9 4 -6 10 -25 14 -25 6z"/>
<path d="M2767 3927 c-3 -8 -1 -20 3 -27 5 -8 6 -18 3 -23 -3 -5 -9 -3 -14 4
-7 11 -9 11 -9 1 0 -7 -4 -10 -10 -7 -6 4 -7 -1 -3 -11 5 -13 3 -15 -7 -9 -8
5 -11 4 -6 -3 8 -13 33 -6 59 16 13 12 15 17 5 24 -10 6 -8 8 5 8 9 0 17 5 17
11 0 6 -7 9 -14 6 -10 -4 -13 -1 -9 9 3 7 1 14 -5 14 -5 0 -12 -6 -15 -13z"/>
<path d="M2707 3882 c-20 -22 -21 -32 -5 -32 6 0 8 3 5 7 -4 3 0 15 10 25 9
10 14 18 11 18 -3 0 -12 -8 -21 -18z"/>
<path d="M2688 3833 c7 -3 16 -2 19 1 4 3 -2 6 -13 5 -11 0 -14 -3 -6 -6z"/>
<path d="M2630 3805 c-7 -9 -8 -15 -2 -15 5 0 12 7 16 15 3 8 4 15 2 15 -2 0
-9 -7 -16 -15z"/>
<path d="M3095 3550 c-10 -17 12 -37 25 -24 8 8 6 15 -4 23 -10 9 -16 9 -21 1z"/>
<path d="M1983 5912 l-762 -2 -60 -81 c-34 -44 -58 -85 -55 -91 4 -6 2 -8 -4
-4 -6 3 -13 2 -17 -4 -7 -12 1003 -6 1014 6 3 3 -25 4 -64 1 -38 -4 -95 -3
-125 2 -30 5 -44 10 -30 11 l25 2 -25 7 c-15 4 6 7 54 8 50 1 82 6 87 14 4 8
20 10 43 6 35 -6 36 -5 36 29 0 25 -4 34 -17 35 -15 0 -15 2 2 9 12 5 14 9 6
9 -8 1 -12 3 -10 6 3 2 16 1 29 -2 22 -6 22 -7 4 -14 -11 -4 17 -8 67 -10 66
-3 85 -1 82 9 -3 6 0 12 6 12 6 0 11 -4 11 -10 0 -5 6 -10 14 -10 11 0 13 -10
9 -39 -6 -46 1 -52 47 -41 24 5 28 8 13 9 -17 1 -23 7 -23 24 0 13 -5 28 -12
35 -9 9 -9 12 0 12 7 0 12 -5 12 -10 0 -6 11 -15 25 -20 14 -5 25 -14 25 -20
0 -5 7 -10 15 -10 8 0 15 -4 15 -10 0 -5 -6 -10 -12 -10 -23 0 16 -20 42 -21
16 -1 10 -5 -20 -11 -31 -7 -45 -7 -48 1 -2 6 -24 11 -50 11 -37 0 -44 -3 -34
-12 10 -10 96 -14 351 -15 185 -1 347 0 359 4 19 5 20 7 6 20 -8 9 -12 18 -9
21 3 4 9 2 13 -4 10 -15 42 -25 42 -14 0 6 -5 10 -11 10 -5 0 -7 5 -4 10 5 8
11 8 20 0 9 -8 17 -6 29 5 12 13 16 13 16 3 0 -8 -5 -19 -12 -26 -7 -7 -8 -12
-3 -12 6 1 53 41 105 90 82 78 91 90 69 90 -14 0 -31 -6 -38 -12 -8 -7 -11 -8
-8 -2 6 11 45 11 -1240 6z m212 -32 c-11 -5 -29 -8 -40 -8 -16 0 -15 2 5 8 34
11 60 11 35 0z m258 -117 c-7 -2 -19 -2 -25 0 -7 3 -2 5 12 5 14 0 19 -2 13
-5z m254 -12 l38 2 -40 7 c-33 6 -35 7 -10 8 17 0 53 -3 80 -8 39 -6 43 -8 18
-9 -18 0 -33 -4 -33 -8 0 -5 -41 -9 -90 -10 -60 -2 -90 1 -90 9 0 7 -12 8 -32
4 -17 -3 -28 -3 -24 1 11 12 109 20 128 11 9 -4 34 -7 55 -7z m226 -18 c-7 -2
-19 -2 -25 0 -7 3 -2 5 12 5 14 0 19 -2 13 -5z"/>
<path d="M2628 5743 c6 -2 18 -2 25 0 6 3 1 5 -13 5 -14 0 -19 -2 -12 -5z"/>
<path d="M4414 5912 c-222 -2 -253 -4 -258 -19 -5 -13 -4 -14 8 -4 11 9 15 8
20 -6 6 -15 8 -15 16 -3 8 12 13 13 30 3 11 -7 34 -13 52 -13 l33 0 -24 -19
-24 -18 21 -19 c24 -20 28 -40 10 -46 -6 -2 19 -2 55 0 43 3 67 1 67 -6 0 -6
-10 -13 -22 -15 -22 -4 -22 -4 2 -6 21 -1 22 -3 10 -12 -12 -9 -11 -10 5 -4
11 3 123 8 249 10 226 4 317 13 155 17 -84 1 -78 2 79 14 45 3 82 10 82 15 0
5 -9 9 -20 9 -11 0 -20 5 -20 10 0 6 27 10 60 10 33 0 60 4 60 10 0 6 32 10
78 10 73 -1 78 -2 102 -30 22 -27 30 -30 82 -30 32 0 58 4 58 10 0 6 -18 10
-40 10 -30 0 -40 4 -40 16 0 15 9 16 61 10 34 -3 70 -6 80 -6 11 0 19 -7 19
-15 0 -8 4 -15 10 -15 5 0 9 -3 9 -7 -4 -25 4 -33 34 -33 24 0 28 3 17 10 -8
5 -10 10 -5 10 6 0 17 -4 24 -9 15 -10 6 -14 -59 -25 -14 -2 133 -3 325 -2
336 2 420 7 455 26 9 5 22 5 31 -1 11 -7 10 -9 -6 -9 -18 -1 -17 -2 4 -11 33
-13 41 -1 14 21 -13 10 -23 23 -23 28 0 5 -15 23 -33 39 -18 16 -32 34 -30 39
2 6 -7 20 -19 31 -23 21 -28 21 -783 25 -418 1 -873 2 -1011 0z m425 -46 c-11
-9 -69 -14 -69 -6 0 6 17 10 37 10 20 0 34 -2 32 -4z m269 -6 c-21 -4 -55 -4
-75 0 -30 6 -22 8 37 8 59 0 67 -2 38 -8z m152 6 c0 -3 -4 -8 -10 -11 -5 -3
-10 -1 -10 4 0 6 5 11 10 11 6 0 10 -2 10 -4z m951 -35 c4 -18 12 -38 19 -44
10 -9 11 -6 5 13 -7 25 -6 25 19 -4 14 -16 24 -32 21 -35 -4 -3 -10 1 -16 9
-8 13 -11 12 -24 -4 -11 -14 -21 -17 -42 -12 -15 4 -43 10 -60 13 -18 3 -33 7
-33 10 0 13 32 34 45 29 8 -3 17 0 21 6 5 7 12 5 21 -7 12 -17 13 -15 13 17 0
20 -5 39 -10 41 -6 3 -5 4 2 3 7 -1 15 -17 19 -35z m-994 23 c-3 -3 -12 -4
-19 -1 -8 3 -5 6 6 6 11 1 17 -2 13 -5z m973 -14 c0 -5 -5 -10 -11 -10 -5 0
-7 5 -4 10 3 6 8 10 11 10 2 0 4 -4 4 -10z m-1307 -27 c-13 -2 -33 -2 -45 0
-13 2 -3 4 22 4 25 0 35 -2 23 -4z m1250 -70 c-7 -2 -19 -2 -25 0 -7 3 -2 5
12 5 14 0 19 -2 13 -5z"/>
<path d="M6190 5770 c-12 -8 -11 -10 8 -10 12 0 22 5 22 10 0 13 -11 13 -30 0z"/>
<path d="M4175 5841 c-3 -5 -2 -12 3 -15 5 -3 9 1 9 9 0 17 -3 19 -12 6z"/>
<path d="M4205 5841 c-3 -5 -1 -12 5 -16 5 -3 10 -11 10 -16 0 -6 -5 -7 -12
-3 -7 4 -8 3 -4 -4 4 -6 13 -9 22 -5 13 5 13 7 -1 23 -8 9 -12 20 -8 23 3 4 4
7 0 7 -3 0 -8 -4 -12 -9z"/>
<path d="M4234 5779 c-3 -6 2 -18 12 -27 17 -16 17 -16 5 0 -7 9 -10 22 -6 28
3 5 4 10 1 10 -3 0 -8 -5 -12 -11z"/>
<path d="M4310 5738 c8 -8 25 -15 39 -16 29 -2 15 10 -28 23 -20 6 -22 5 -11
-7z"/>
<path d="M3073 5725 c0 -8 4 -12 9 -9 5 3 6 10 3 15 -9 13 -12 11 -12 -6z"/>
<path d="M5268 5733 c6 -2 18 -2 25 0 6 3 1 5 -13 5 -14 0 -19 -2 -12 -5z"/>
<path d="M4295 5720 c3 -5 8 -10 11 -10 2 0 4 5 4 10 0 6 -5 10 -11 10 -5 0
-7 -4 -4 -10z"/>
<path d="M1294 5602 l-302 -2 -56 -89 c-31 -49 -56 -92 -56 -96 0 -3 231 -4
513 0 281 3 578 6 660 6 97 0 147 3 147 10 0 7 23 9 68 5 38 -4 59 -3 48 2
-12 5 27 9 100 11 77 1 115 -2 109 -8 -6 -5 -32 -12 -60 -14 -27 -2 6 -3 75
-3 98 1 124 4 122 14 -1 8 2 11 7 8 5 -4 22 5 38 18 15 13 36 22 45 20 10 -1
20 2 24 7 3 5 10 9 16 9 7 0 6 -6 -2 -15 -22 -27 -5 -16 26 16 23 24 25 29 9
23 -11 -4 -17 -3 -12 1 4 5 15 9 25 10 16 1 112 61 112 70 0 4 -1131 2 -1656
-3z m1565 -30 c7 -14 4 -17 -17 -19 -24 -1 -25 0 -10 11 14 10 15 15 5 26 -9
10 -9 11 0 6 7 -4 17 -15 22 -24z"/>
<path d="M4463 5598 c23 -10 31 -23 29 -48 0 -3 20 -4 44 -3 40 2 44 0 44 -22
0 -32 17 -41 23 -13 4 22 4 22 6 2 0 -12 8 -34 16 -50 10 -19 11 -30 4 -35
-21 -13 17 -15 121 -8 58 4 152 5 210 3 58 -2 123 -1 145 3 l40 7 -30 7 -30 7
30 2 c25 1 26 3 11 9 -11 4 -20 15 -22 24 -2 18 29 34 34 18 5 -14 322 -15
322 -1 0 6 18 10 40 10 22 0 40 -4 40 -10 0 -5 9 -10 20 -10 15 0 20 -7 20
-26 0 -25 2 -26 58 -23 31 1 95 1 142 -1 l85 -4 -110 -6 c-107 -7 -105 -7 45
-6 85 0 193 -3 240 -8 79 -8 388 3 345 12 -11 2 -24 8 -29 12 -13 13 13 70 29
64 18 -7 57 14 50 27 -12 19 5 8 36 -23 18 -18 26 -24 17 -13 -9 11 -18 29
-22 40 -3 11 -14 30 -24 42 l-17 22 -995 5 c-756 4 -988 2 -967 -6z m955 -45
c-21 -2 -57 -2 -80 0 -24 2 -7 4 37 4 44 0 63 -2 43 -4z m105 -10 c-13 -2 -33
-2 -45 0 -13 2 -3 4 22 4 25 0 35 -2 23 -4z m-63 -23 c0 -6 -33 -10 -80 -10
-47 0 -80 4 -80 10 0 6 33 10 80 10 47 0 80 -4 80 -10z m-772 -85 c1 -1 -7 -5
-19 -8 -11 -3 -18 -3 -15 0 3 4 0 13 -7 21 -11 13 -9 14 13 2 14 -7 26 -14 28
-15z m1229 9 c-3 -3 -12 -4 -19 -1 -8 3 -5 6 6 6 11 1 17 -2 13 -5z"/>
<path d="M4475 5521 c-3 -5 -2 -12 3 -15 5 -3 9 1 9 9 0 17 -3 19 -12 6z"/>
<path d="M6430 5490 c-6 -11 -8 -20 -6 -20 3 0 10 9 16 20 6 11 8 20 6 20 -3
0 -10 -9 -16 -20z"/>
<path d="M4515 5470 c3 -5 8 -10 11 -10 2 0 4 5 4 10 0 6 -5 10 -11 10 -5 0
-7 -4 -4 -10z"/>
<path d="M6445 5469 c-4 -6 -5 -12 -2 -15 2 -3 7 2 10 11 7 17 1 20 -8 4z"/>
<path d="M2745 5460 c3 -5 2 -10 -2 -10 -5 0 -14 -9 -21 -21 -12 -19 -11 -19
7 -9 11 6 25 19 31 30 9 16 8 20 -5 20 -9 0 -13 -4 -10 -10z"/>
<path d="M5220 5460 c0 -5 18 -10 40 -10 22 0 40 5 40 10 0 6 -18 10 -40 10
-22 0 -40 -4 -40 -10z"/>
<path d="M5380 5459 c0 -5 9 -9 20 -9 11 0 20 2 20 4 0 2 -9 6 -20 9 -11 3
-20 1 -20 -4z"/>
<path d="M6501 5454 c0 -11 3 -14 6 -6 3 7 2 16 -1 19 -3 4 -6 -2 -5 -13z"/>
<path d="M5168 5433 c12 -2 30 -2 40 0 9 3 -1 5 -23 4 -22 0 -30 -2 -17 -4z"/>
<path d="M6520 5420 c0 -5 5 -10 11 -10 5 0 7 5 4 10 -3 6 -8 10 -11 10 -2 0
-4 -4 -4 -10z"/>
<path d="M1575 5300 c-418 -3 -761 -7 -762 -8 -5 -4 -93 -182 -93 -188 0 -3
275 -3 610 1 l610 7 46 25 c40 22 54 25 112 21 44 -4 60 -2 47 3 -17 8 -16 9
6 6 21 -3 26 0 25 17 -1 19 5 21 57 24 58 3 78 -11 32 -22 -23 -6 -24 -8 -11
-21 22 -22 63 -19 71 5 3 11 15 20 25 20 10 0 27 3 37 6 10 3 7 -1 -7 -9 -14
-9 -28 -13 -31 -11 -4 2 -6 -4 -4 -13 1 -10 -3 -25 -9 -33 -19 -25 72 49 98
80 14 17 31 30 38 31 7 0 3 4 -10 10 -13 5 -20 13 -17 19 3 5 1 10 -5 10 -7 0
-9 -7 -5 -17 5 -14 3 -15 -6 -6 -15 15 -4 32 21 30 10 -1 17 -4 14 -8 -2 -4 0
-11 6 -14 6 -4 9 -1 8 6 -2 6 3 14 11 17 10 3 13 -1 8 -16 -4 -19 -3 -20 15
-11 11 6 17 16 15 24 -4 9 1 11 14 8 10 -3 19 -1 19 4 0 10 39 10 -985 3z
m802 -24 c-22 -17 -11 -25 37 -28 27 -2 33 -6 23 -13 -8 -5 -15 -14 -15 -19
-1 -5 -20 -10 -41 -11 -30 -2 -41 2 -44 14 -3 10 -5 8 -6 -6 0 -13 -7 -23 -15
-23 -10 0 -14 14 -14 50 l0 50 47 0 c41 -1 44 -2 28 -14z"/>
<path d="M4720 5290 c-23 -7 -24 -8 -3 -9 12 -1 25 -5 28 -11 3 -5 15 -10 25
-10 23 0 53 -39 41 -54 -12 -14 14 -50 28 -41 6 3 9 0 6 -7 -3 -7 12 -33 34
-58 l39 -45 78 27 c44 14 114 39 157 54 l78 27 57 -26 57 -26 678 -5 677 -5
-14 32 c-7 17 -28 62 -46 98 l-33 66 -931 1 c-512 0 -942 -3 -956 -8z m133
-37 c-7 -2 -19 -2 -25 0 -7 3 -2 5 12 5 14 0 19 -2 13 -5z m-3 -58 c-7 -9 -15
-13 -19 -10 -3 3 1 10 9 15 21 14 24 12 10 -5z"/>
<path d="M4766 5241 c-3 -4 6 -13 19 -19 19 -9 23 -8 19 3 -7 17 -31 27 -38
16z"/>
<path d="M2220 5130 c0 -5 5 -10 11 -10 5 0 7 5 4 10 -3 6 -8 10 -11 10 -2 0
-4 -4 -4 -10z"/>
<path d="M2300 5110 c-9 -6 -10 -10 -3 -10 6 0 15 5 18 10 8 12 4 12 -15 0z"/>
<path d="M669 4983 c-8 -2 -24 -27 -34 -56 -10 -29 -25 -63 -32 -77 -20 -38
-16 -47 25 -54 20 -3 226 -6 458 -6 386 0 422 1 440 18 15 14 157 109 250 169
15 9 -103 12 -536 11 -305 0 -562 -2 -571 -5z m991 -57 c0 -9 -30 -14 -35 -6
-4 6 3 10 14 10 12 0 21 -2 21 -4z"/>
<path d="M5531 4985 c6 -5 110 -73 216 -139 l78 -50 503 -4 c360 -3 502 -1
502 7 0 6 -16 51 -36 101 l-36 90 -616 0 c-338 0 -613 -2 -611 -5z"/>
<path d="M6420 4682 c-206 -1 -378 -6 -382 -10 -4 -4 41 -31 100 -61 59 -30
137 -72 175 -94 l67 -39 272 1 c150 1 273 3 275 4 5 5 -41 183 -50 195 -5 7
-26 11 -46 10 -20 -2 -205 -4 -411 -6z"/>
<path d="M542 4668 c-14 -18 -63 -181 -56 -187 3 -3 120 -5 259 -4 249 1 253
2 291 26 22 13 59 35 84 49 75 42 200 119 200 124 0 2 -173 4 -384 4 -295 0
-386 -3 -394 -12z"/>
<path d="M578 4373 c-114 -4 -118 -4 -118 -26 0 -12 -9 -55 -19 -94 -10 -40
-14 -73 -10 -73 5 0 52 23 105 51 53 29 138 71 190 94 99 45 101 57 9 53 -22
-1 -93 -4 -157 -5z"/>
<path d="M6577 4360 c4 -5 37 -20 73 -35 36 -15 122 -56 192 -91 70 -35 132
-64 136 -64 5 0 3 39 -4 88 -8 48 -14 93 -14 100 0 10 -41 13 -196 11 -108 -1
-192 -5 -187 -9z"/>
<path d="M7022 3450 c0 -14 2 -19 5 -12 2 6 2 18 0 25 -3 6 -5 1 -5 -13z"/>
<path d="M752 3423 c-6 -16 -17 -50 -23 -78 -17 -71 -85 -199 -125 -235 -39
-34 -42 -46 -13 -55 33 -11 87 4 104 28 13 18 15 19 15 4 0 -36 -51 -114 -125
-191 -41 -44 -75 -81 -75 -83 0 -2 24 -3 54 -3 41 0 62 6 92 26 21 15 42 32
46 38 6 8 8 8 8 0 0 -20 -50 -87 -113 -151 -56 -58 -60 -64 -49 -88 18 -39 63
-30 126 25 52 46 45 23 -19 -62 -30 -40 -55 -83 -55 -96 0 -39 72 -158 88
-148 4 3 18 -39 30 -91 29 -119 54 -170 180 -359 129 -194 183 -264 322 -425
204 -234 332 -345 620 -538 316 -211 801 -418 1140 -487 80 -16 84 -16 129 4
25 11 72 32 104 46 72 31 275 147 341 193 27 20 92 57 145 84 53 26 112 64
131 83 25 25 41 33 56 30 12 -3 43 5 70 19 27 13 66 30 87 36 20 7 37 16 37
21 0 15 -96 93 -167 136 -45 27 -69 48 -71 63 -4 25 13 27 79 7 83 -25 147
-65 225 -139 l41 -38 34 23 c33 22 113 60 151 72 38 12 10 33 -222 174 -58 35
-165 97 -238 138 -126 71 -133 74 -156 59 -13 -9 -31 -12 -40 -9 -24 9 2 26
28 18 13 -4 17 -2 14 7 -3 9 -18 13 -44 11 -41 -2 -94 14 -94 29 0 5 -5 9 -10
9 -6 0 -2 -12 7 -27 17 -26 17 -27 0 -20 -10 4 -23 7 -28 7 -5 0 -9 5 -9 11 0
5 4 7 10 4 6 -4 7 1 3 11 -4 11 -8 13 -11 6 -7 -22 -35 -14 -29 8 3 11 1 20
-5 20 -5 0 -6 5 -2 12 4 7 3 8 -5 4 -6 -4 -18 -2 -26 4 -12 10 -15 10 -15 0 0
-6 9 -14 20 -17 11 -3 20 -9 20 -14 0 -5 -14 -2 -30 6 -17 9 -29 19 -26 24 7
10 -41 37 -82 46 -23 5 -32 11 -28 21 4 11 -1 13 -22 8 -24 -6 -25 -5 -9 7 16
13 14 14 -15 13 -18 0 -37 3 -43 7 -5 4 -26 10 -46 13 -20 3 -44 8 -55 11 -10
4 36 -20 102 -53 114 -56 323 -169 334 -182 3 -3 44 -31 93 -64 84 -56 127
-98 108 -104 -11 -4 -111 46 -177 88 -26 16 -51 27 -55 24 -5 -3 -9 -1 -9 3 0
11 -87 56 -115 60 -56 7 -85 9 -81 5 13 -12 -26 -32 -51 -27 l-28 5 26 -12
c34 -17 27 -40 -9 -32 -15 4 -1 -7 31 -25 33 -17 64 -28 70 -24 6 4 7 1 2 -7
-6 -10 -4 -12 9 -7 9 4 15 3 12 -2 -7 -11 43 -33 56 -25 6 4 8 2 5 -3 -6 -9
140 -113 157 -113 17 0 160 -134 148 -138 -6 -2 -66 30 -134 71 -178 107 -285
160 -294 144 -4 -6 -4 -9 0 -5 5 4 36 -9 70 -27 l61 -35 0 -47 c0 -47 1 -48
35 -53 30 -4 35 -9 38 -35 2 -16 9 -35 16 -40 8 -6 15 -19 17 -30 3 -11 10
-21 17 -21 6 -1 17 -2 23 -3 5 0 8 -5 4 -10 -3 -5 4 -12 15 -16 24 -7 27 -35
4 -35 -17 0 -16 -40 1 -52 6 -5 6 -8 -1 -8 -16 0 -97 61 -90 68 4 3 -2 11 -13
16 -11 6 -47 36 -81 66 -74 65 -159 115 -173 101 -7 -7 16 -38 63 -88 40 -43
85 -94 99 -113 14 -19 48 -62 75 -95 44 -54 47 -60 29 -63 -37 -5 -163 63
-163 88 0 17 -165 177 -230 223 -12 8 -23 26 -24 40 -1 23 -4 24 -61 24 -33 0
-45 -2 -27 -4 24 -3 33 -9 31 -21 -3 -38 1 -54 15 -49 8 3 36 -17 68 -51 66
-69 159 -184 154 -190 -3 -2 -78 34 -168 80 -90 46 -205 103 -257 128 -52 24
-111 57 -133 72 -38 28 -38 28 -38 98 0 39 2 70 5 70 3 0 22 -7 42 -15 35 -15
85 -20 95 -9 3 3 -25 35 -63 72 -75 73 -90 103 -39 77 29 -15 81 -20 93 -9 3
4 -16 32 -44 63 -28 31 -57 68 -65 84 l-15 27 33 -20 c77 -47 100 -10 36 58
-55 59 -75 92 -55 92 7 0 22 -6 32 -14 19 -13 45 -11 45 4 0 4 -20 38 -45 74
-56 84 -59 99 -13 75 11 -6 22 -8 25 -6 6 6 -104 287 -118 302 -5 5 -9 -1 -9
-16 0 -38 -38 -165 -65 -220 -14 -26 -25 -51 -25 -54 0 -9 49 -5 55 5 3 6 11
10 16 10 14 0 -2 -27 -55 -88 -56 -65 -53 -87 11 -78 23 3 43 3 43 0 0 -3 -28
-35 -62 -70 l-61 -64 56 0 c32 0 57 -4 57 -8 0 -5 -29 -37 -65 -71 -36 -35
-65 -67 -65 -72 0 -13 39 -10 83 5 20 8 37 11 37 8 0 -2 -25 -33 -55 -67 -30
-35 -55 -66 -55 -69 0 -3 29 -6 65 -6 l65 0 0 -55 c0 -30 -1 -55 -3 -55 -2 0
-28 12 -58 26 -30 15 -71 33 -92 40 -22 8 -72 34 -112 60 -41 25 -111 61 -157
80 -46 19 -89 42 -95 51 -7 9 -13 41 -13 71 0 50 1 53 21 47 32 -10 90 -8 101
3 7 7 -6 28 -41 65 -28 30 -51 57 -51 60 0 3 16 1 36 -5 20 -5 48 -7 62 -3
l25 6 -35 37 c-19 20 -48 55 -64 76 -26 35 -26 38 -7 28 27 -15 70 -16 78 -2
4 6 -14 34 -40 62 -71 79 -72 84 -14 80 53 -4 60 5 28 34 -25 23 -79 99 -79
112 0 5 11 7 25 4 32 -6 32 10 1 78 -14 29 -32 82 -42 117 -9 35 -20 60 -24
56 -4 -4 -17 -33 -28 -63 -11 -30 -34 -80 -51 -110 -17 -30 -31 -58 -31 -62 0
-4 14 -5 30 -1 17 3 30 1 30 -4 0 -5 -20 -36 -45 -69 -24 -32 -45 -65 -45 -71
0 -15 56 -18 65 -3 3 6 11 10 16 10 16 0 -21 -60 -67 -110 -24 -26 -44 -49
-44 -52 0 -13 40 -14 70 -2 18 8 34 14 36 14 8 0 -65 -95 -90 -119 -14 -14
-26 -28 -26 -32 0 -14 35 -15 74 -2 22 7 41 12 43 10 2 -2 -17 -29 -42 -59
-25 -30 -45 -58 -45 -61 0 -4 23 -9 50 -13 l50 -7 0 -38 c0 -22 -3 -39 -6 -39
-6 0 -62 33 -204 119 -41 25 -140 80 -220 121 l-145 75 -3 168 c-1 92 0 167 3
167 3 0 22 -8 43 -19 59 -29 201 -56 202 -38 1 5 -21 25 -47 47 -53 42 -101
98 -127 147 l-16 32 46 -19 c46 -20 109 -27 117 -12 3 4 -24 41 -59 82 -61 71
-135 177 -117 168 86 -43 107 -49 145 -43 l40 7 -55 57 c-75 76 -180 251 -152
251 3 0 18 -9 33 -20 27 -20 132 -40 132 -25 0 4 -18 28 -41 52 -53 58 -110
181 -145 313 -15 58 -31 109 -35 114 -11 12 -24 -18 -58 -136 -41 -143 -61
-183 -123 -247 -49 -51 -51 -54 -33 -67 10 -8 37 -14 58 -14 32 0 46 7 73 35
l33 35 -16 -45 c-23 -69 -104 -186 -162 -235 -53 -45 -62 -64 -35 -74 46 -18
120 6 165 55 16 17 29 27 29 22 0 -25 -84 -135 -148 -194 -40 -37 -72 -71 -72
-77 0 -35 130 -17 180 24 42 36 44 29 4 -26 -36 -50 -180 -190 -196 -190 -4 0
-8 -5 -8 -11 0 -18 158 -6 198 15 19 10 36 16 38 14 7 -8 17 -258 9 -258 -4 0
-46 22 -94 49 -283 160 -403 221 -434 221 -19 0 -26 7 -30 28 -5 28 -10 302
-5 302 2 0 41 -14 88 -30 113 -39 165 -39 109 0 -29 21 -143 158 -163 197 -21
43 -20 50 5 27 24 -22 124 -27 124 -7 0 7 -27 45 -61 85 -54 64 -94 125 -94
143 0 3 18 -4 41 -15 94 -48 114 -3 39 85 -51 59 -80 107 -95 154 l-7 24 32
-23 c35 -25 72 -29 95 -10 13 11 10 18 -26 57 -46 50 -85 132 -123 257 -15 47
-30 86 -35 86 -5 0 -13 -12 -19 -27z m2699 -1973 c21 -17 22 -21 3 -19 -3 0
-14 -10 -24 -22 -15 -17 -25 -20 -47 -14 -15 4 -22 10 -15 12 6 3 12 13 12 23
0 17 23 39 41 40 4 0 17 -9 30 -20z m231 -4 c7 4 8 2 4 -5 -6 -9 -11 -9 -22 0
-7 6 -11 16 -7 23 5 7 9 5 11 -7 2 -9 8 -14 14 -11z m-157 -26 c3 -5 1 -10 -4
-10 -6 0 -11 5 -11 10 0 6 2 10 4 10 3 0 8 -4 11 -10z m-1790 -56 c19 -8 45
-55 45 -84 0 -14 -6 -20 -24 -20 -37 0 -50 25 -47 88 1 24 2 25 26 16z m1829
-173 c3 -5 -1 -12 -10 -15 -8 -3 -13 -2 -9 3 3 5 -1 12 -7 14 -8 4 -7 6 4 6 9
1 19 -3 22 -8z"/>
<path d="M6497 3381 c-15 -43 -21 -49 -59 -59 -80 -21 -178 -56 -178 -64 0 -4
10 -4 23 1 12 5 65 21 117 37 52 16 98 33 101 38 8 10 21 87 17 92 -2 2 -11
-18 -21 -45z"/>
<path d="M6588 3311 c-35 -144 -92 -265 -158 -335 -49 -51 -50 -55 -31 -65 46
-25 125 1 151 49 23 43 21 10 -5 -66 -27 -81 -71 -148 -150 -230 l-42 -45 28
-14 c15 -8 39 -15 52 -15 27 0 90 39 118 73 31 37 21 5 -19 -60 -20 -34 -72
-98 -115 -142 -43 -44 -76 -85 -72 -91 10 -16 102 -12 138 6 18 9 47 30 66 48
l34 31 -19 -34 c-39 -68 -177 -218 -231 -250 -16 -9 -16 -12 -3 -21 22 -16
111 -5 158 19 23 12 44 21 47 21 4 0 5 -58 3 -129 l-3 -129 27 41 c15 22 64
120 109 216 45 97 91 190 101 206 27 44 23 68 -27 159 -25 46 -45 86 -45 90 0
4 15 -9 34 -27 49 -49 84 -56 113 -22 32 37 29 51 -23 107 -43 46 -115 181
-130 242 l-7 29 30 -22 c35 -27 102 -51 120 -44 21 8 15 38 -12 63 -67 63
-118 166 -165 333 -15 55 -32 103 -37 108 -5 5 -20 -36 -35 -100z"/>
<path d="M6730 3375 c0 -8 4 -15 10 -15 5 0 7 7 4 15 -4 8 -8 15 -10 15 -2 0
-4 -7 -4 -15z"/>
<path d="M5908 3343 c7 -3 16 -2 19 1 4 3 -2 6 -13 5 -11 0 -14 -3 -6 -6z"/>
<path d="M5858 3333 c6 -2 18 -2 25 0 6 3 1 5 -13 5 -14 0 -19 -2 -12 -5z"/>
<path d="M5806 3321 c-4 -5 3 -7 14 -4 23 6 26 13 6 13 -8 0 -17 -4 -20 -9z"/>
<path d="M1540 3281 c0 -8 249 -55 256 -49 2 3 -42 15 -98 26 -135 27 -158 30
-158 23z"/>
<path d="M5623 3278 c-10 -12 -14 -48 -6 -48 6 0 24 52 20 57 -2 2 -9 -2 -14
-9z"/>
<path d="M6945 3279 c-43 -10 -142 -28 -162 -31 -16 -2 -17 3 8 -63 20 -55 91
-155 109 -155 6 0 9 3 9 8 -3 19 2 33 11 27 6 -3 10 -1 10 5 0 6 4 9 9 6 18
-11 39 22 50 78 13 68 15 137 4 135 -5 -1 -26 -5 -48 -10z m-45 -221 c0 -4 -4
-8 -9 -8 -6 0 -12 4 -15 8 -3 5 1 9 9 9 8 0 15 -4 15 -9z"/>
<path d="M6145 3220 c-3 -5 -12 -10 -20 -10 -20 0 -69 -20 -63 -25 6 -7 97 25
104 36 3 5 1 9 -5 9 -5 0 -13 -4 -16 -10z"/>
<path d="M5841 3184 c0 -11 3 -14 6 -6 3 7 2 16 -1 19 -3 4 -6 -2 -5 -13z"/>
<path d="M5716 3173 c-3 -10 -15 -67 -27 -128 -35 -183 -104 -322 -221 -441
-59 -61 -60 -62 -38 -74 30 -16 117 -5 157 20 17 10 41 37 54 59 34 61 42 50
12 -16 -43 -96 -112 -193 -200 -282 -45 -46 -80 -87 -77 -92 3 -5 27 -9 54 -9
70 0 146 37 198 95 59 67 52 41 -14 -51 -84 -118 -141 -181 -212 -237 -73 -57
-71 -68 13 -75 74 -6 145 29 214 104 62 67 66 58 10 -22 -65 -91 -125 -158
-221 -245 l-88 -79 68 0 c57 0 79 5 137 34 39 19 84 44 100 55 17 12 33 21 38
21 4 0 7 -53 7 -117 0 -65 3 -148 7 -185 5 -57 9 -68 24 -68 11 0 19 -7 19
-16 0 -17 -76 -54 -210 -102 -47 -17 -157 -58 -245 -90 -147 -55 -223 -86
-600 -243 -125 -52 -452 -212 -735 -359 -137 -72 -236 -107 -370 -135 -41 -8
-120 -29 -174 -47 -119 -38 -115 -40 87 -58 198 -18 613 1 807 36 350 64 658
168 955 323 389 204 687 435 955 742 l131 149 -50 0 c-112 0 -297 -53 -412
-118 -26 -14 -50 -24 -53 -21 -5 4 -14 299 -10 299 1 0 28 -12 60 -26 36 -16
85 -28 126 -32 70 -5 158 4 158 17 0 4 -24 17 -53 29 -94 39 -231 168 -260
244 -5 15 1 12 22 -11 39 -41 112 -71 191 -78 50 -4 68 -2 77 9 10 12 0 23
-53 64 -72 54 -185 178 -215 236 -25 48 -24 57 3 29 48 -52 172 -82 222 -54
17 9 13 14 -37 53 -77 58 -210 236 -232 310 l-7 25 28 -26 c46 -42 88 -59 149
-59 30 0 55 3 55 7 0 3 -28 36 -63 72 -35 36 -76 87 -91 112 -37 65 -84 197
-107 304 -29 132 -39 165 -49 165 -5 0 -11 -8 -14 -17z m-215 -2119 c-42 -19
-99 -30 -88 -18 9 10 83 32 107 32 8 0 0 -6 -19 -14z m-509 -161 c-6 -2 -10
-9 -6 -14 3 -5 -5 -9 -18 -9 -16 0 -19 -3 -10 -8 8 -6 2 -9 -18 -9 l-30 0 37
23 c21 12 43 22 48 22 6 0 4 -2 -3 -5z m95 -29 c-3 -3 -12 -4 -19 -1 -8 3 -5
6 6 6 11 1 17 -2 13 -5z m-68 -38 c-13 -5 -107 -50 -208 -98 -101 -48 -187
-85 -190 -82 -6 6 42 52 104 99 42 33 160 98 146 81 -9 -11 -8 -15 4 -19 8 -4
14 -1 12 5 -1 7 7 13 18 15 17 4 18 2 5 -7 -13 -10 -12 -11 3 -6 10 3 24 6 30
6 7 0 6 4 -3 10 -11 7 -7 8 15 6 17 -2 39 0 50 4 30 11 43 -2 14 -14z"/>
<path d="M5330 3170 c-8 -5 -10 -10 -5 -10 6 0 17 5 25 10 8 5 11 10 5 10 -5
0 -17 -5 -25 -10z"/>
<path d="M6008 3163 c7 -3 16 -2 19 1 4 3 -2 6 -13 5 -11 0 -14 -3 -6 -6z"/>
<path d="M5280 3150 c-8 -5 -10 -10 -5 -10 6 0 17 5 25 10 8 5 11 10 5 10 -5
0 -17 -5 -25 -10z"/>
<path d="M5860 3120 c0 -5 5 -10 11 -10 5 0 7 5 4 10 -3 6 -8 10 -11 10 -2 0
-4 -4 -4 -10z"/>
<path d="M468 3106 c-11 -8 -18 -25 -17 -42 l1 -29 8 28 c5 16 14 35 21 43 14
17 10 18 -13 0z"/>
<path d="M6370 3061 c0 -6 -7 -8 -15 -5 -8 4 -15 1 -15 -5 0 -6 -5 -11 -11
-11 -5 0 -7 5 -4 10 3 6 -1 10 -9 10 -9 0 -16 -4 -16 -9 0 -5 -8 -8 -17 -6
-44 9 -137 12 -118 5 19 -8 19 -9 -2 -9 -14 -1 -23 -7 -23 -16 0 -18 -17 -20
-22 -3 -3 8 -9 8 -24 0 -12 -7 -14 -11 -5 -12 8 0 12 -3 9 -6 -4 -3 -15 -1
-26 5 -22 11 -96 -4 -87 -18 3 -5 -2 -12 -11 -15 -8 -3 -12 -2 -9 4 3 6 2 10
-4 10 -5 0 -13 -5 -16 -10 -4 -6 -10 -8 -14 -6 -4 3 -13 1 -19 -3 -22 -13 51
-191 78 -191 6 0 10 5 10 11 0 5 4 7 10 4 5 -3 54 13 107 35 54 23 113 42 130
43 28 2 33 6 33 27 1 33 17 60 68 114 24 25 38 47 32 51 -5 3 -10 2 -10 -4z
m-435 -101 c3 -5 -1 -10 -10 -10 -9 0 -13 5 -10 10 3 6 8 10 10 10 2 0 7 -4
10 -10z"/>
<path d="M3067 3049 c7 -7 15 -10 18 -7 3 3 -2 9 -12 12 -14 6 -15 5 -6 -5z"/>
<path d="M2710 3036 c0 -2 7 -7 16 -10 8 -3 12 -2 9 4 -6 10 -25 14 -25 6z"/>
<path d="M464 3005 c2 -16 4 -38 5 -47 1 -24 16 -23 53 3 32 23 25 39 -19 39
-12 0 -26 8 -32 18 -8 14 -9 11 -7 -13z"/>
<path d="M1778 3013 c7 -3 16 -2 19 1 4 3 -2 6 -13 5 -11 0 -14 -3 -6 -6z"/>
<path d="M996 2991 c-6 -9 26 -51 40 -51 4 0 3 5 -4 12 -7 7 -12 20 -12 30 0
19 -15 24 -24 9z"/>
<path d="M2735 2920 c3 -5 8 -10 11 -10 2 0 4 5 4 10 0 6 -5 10 -11 10 -5 0
-7 -4 -4 -10z"/>
<path d="M5158 2894 c-53 -27 -65 -40 -20 -21 29 12 81 46 72 46 -3 0 -26 -11
-52 -25z"/>
<path d="M2000 2898 c0 -7 -14 -40 -31 -73 -25 -50 -29 -67 -24 -102 4 -28 2
-43 -4 -43 -14 0 -14 -37 0 -45 7 -5 5 -15 -6 -32 -21 -31 -13 -54 17 -50 20
2 23 -3 26 -40 2 -34 0 -43 -12 -43 -9 0 -16 4 -16 9 0 5 -10 11 -21 14 -15 4
-20 11 -16 21 4 9 2 16 -4 16 -6 0 -9 6 -6 14 6 14 -26 56 -42 56 -5 0 -18 15
-30 33 -11 17 -24 32 -28 32 -4 0 -7 6 -7 12 1 7 -3 10 -8 7 -5 -3 -7 -12 -4
-20 3 -8 1 -14 -5 -14 -6 0 -9 -6 -6 -13 4 -10 -2 -13 -18 -9 -20 3 -23 1 -18
-19 4 -19 3 -21 -6 -9 -6 8 -11 11 -11 5 0 -5 27 -36 60 -68 66 -63 77 -99 40
-132 -21 -19 -19 -19 77 -41 54 -13 108 -23 120 -23 28 -1 49 34 33 54 -6 8
-12 46 -14 84 -2 69 -1 71 22 71 25 0 27 16 7 63 -5 12 -3 17 8 17 29 0 29 21
1 51 -31 32 -28 47 7 29 l22 -13 -23 39 c-42 71 -50 89 -56 127 -6 36 -24 62
-24 35z"/>
<path d="M1207 2860 c-19 -16 -40 -30 -46 -30 -6 0 -16 -9 -23 -19 -6 -10 -18
-17 -26 -14 -11 5 -11 7 -1 14 8 4 11 10 8 14 -3 3 -20 -9 -38 -26 -21 -20
-39 -29 -52 -26 -10 3 -22 0 -26 -6 -8 -14 76 -89 91 -80 6 3 8 3 4 -2 -4 -4
2 -19 12 -33 30 -38 24 -57 -30 -97 -27 -20 -50 -40 -50 -44 0 -4 9 -16 19
-25 18 -17 20 -17 29 1 6 10 35 36 65 58 47 34 87 79 87 98 0 2 -13 10 -29 17
-16 6 -41 24 -56 40 -34 35 -29 69 13 96 29 19 99 94 88 94 -3 0 -21 -13 -39
-30z m-76 -167 c-11 -5 -11 -7 0 -15 12 -8 12 -9 0 -6 -22 6 -25 28 -4 27 12
0 14 -2 4 -6z"/>
<path d="M5518 2876 c-10 -7 -14 -17 -10 -21 4 -5 1 -5 -5 -1 -7 4 -41 -6 -75
-22 -146 -68 -270 -123 -383 -167 -293 -115 -436 -181 -615 -285 -36 -20 -92
-52 -125 -70 -33 -18 -73 -43 -90 -55 -16 -12 -50 -32 -75 -45 -24 -12 -105
-62 -180 -110 -142 -92 -480 -270 -512 -270 -35 0 -9 -17 139 -90 82 -40 202
-104 268 -143 66 -39 152 -88 190 -111 121 -70 317 -197 395 -256 41 -31 81
-59 87 -64 7 -4 44 4 83 18 107 39 130 53 130 80 0 22 -4 24 -77 28 -92 6
-131 22 -140 56 -5 21 3 33 46 75 54 51 54 52 9 78 -29 16 -21 45 22 82 43 36
42 42 -7 62 -49 21 -42 45 27 106 33 29 60 55 60 59 0 4 -14 13 -30 20 -28 12
-60 44 -60 61 0 4 16 26 36 50 19 23 43 58 53 78 10 20 30 56 44 81 22 38 57
144 57 172 0 5 -8 4 -17 -2 -10 -5 -99 -48 -198 -95 -203 -97 -310 -155 -540
-295 -165 -101 -264 -154 -271 -147 -2 2 23 25 57 52 33 26 81 66 106 88 71
66 137 113 236 168 51 28 99 57 107 64 8 6 35 23 60 36 25 13 88 49 140 80 52
31 144 78 203 103 60 26 125 59 145 72 29 20 43 24 78 18 34 -5 50 -1 87 20
35 21 269 106 291 106 2 0 7 -8 9 -17 3 -11 5 -6 6 11 1 22 21 48 91 115 67
65 99 105 130 164 23 42 40 77 38 77 -1 0 -11 -7 -20 -14z m-98 -150 c0 -2 -8
-10 -17 -17 -16 -13 -17 -12 -4 4 13 16 21 21 21 13z m-80 -86 c0 -5 -5 -10
-11 -10 -5 0 -7 5 -4 10 3 6 8 10 11 10 2 0 4 -4 4 -10z"/>
<path d="M2260 2840 c0 -23 -45 -116 -66 -138 -18 -18 -18 -28 2 -36 16 -6 16
-8 0 -24 -22 -25 -20 -39 7 -46 l22 -6 -25 -13 c-31 -16 -32 -41 -2 -45 15 -2
22 -10 22 -24 0 -20 -1 -20 -18 -5 -24 22 -31 21 -59 -5 -12 -12 -33 -22 -45
-23 -13 -1 -24 -7 -24 -13 -1 -7 -2 -17 -3 -23 0 -5 -5 -8 -9 -5 -4 2 -8 -4
-8 -15 0 -10 4 -19 8 -19 4 0 8 6 8 13 0 8 12 24 26 38 l25 24 39 -23 c42 -24
54 -27 46 -13 -3 5 1 14 9 21 12 10 16 9 21 -5 4 -9 3 -20 -2 -24 -19 -13 -19
-92 0 -129 12 -24 31 -32 160 -69 80 -23 165 -52 188 -63 23 -11 42 -19 43
-17 0 1 9 21 19 43 10 23 29 47 42 55 21 11 27 10 48 -10 25 -23 30 -33 66
-133 21 -57 22 -58 61 -58 35 0 57 12 162 89 67 50 136 101 152 114 17 13 74
53 127 89 77 53 94 68 85 79 -10 11 -9 11 5 1 14 -11 28 -5 91 40 63 44 74 56
66 70 -5 10 -14 18 -20 18 -5 0 -27 11 -50 25 -22 14 -45 23 -52 19 -7 -4 -9
-3 -4 1 7 9 -69 53 -163 95 -25 11 -62 30 -83 41 -21 12 -41 18 -44 15 -4 -3
-1 -6 6 -6 7 0 9 -4 6 -10 -3 -5 -1 -10 5 -10 6 0 9 -4 6 -9 -9 -13 21 -33 41
-28 15 3 14 6 -7 15 -14 6 -20 11 -13 11 23 2 43 -11 43 -28 0 -14 2 -14 11
-1 9 13 10 13 6 0 -2 -8 -8 -14 -13 -14 -5 1 -25 4 -44 8 -32 5 -34 5 -16 -9
18 -14 18 -15 2 -15 -10 0 -20 9 -23 21 -4 12 -11 18 -20 15 -8 -3 -17 -6 -19
-6 -2 0 -4 -11 -4 -25 0 -18 -5 -25 -19 -25 -11 0 -27 -3 -37 -7 -13 -5 -15
-3 -9 8 6 11 5 12 -6 2 -16 -16 -33 -17 -23 -1 4 7 3 8 -5 4 -6 -4 -9 -12 -6
-17 3 -5 -1 -6 -9 -3 -8 3 -12 13 -9 22 4 13 3 14 -5 4 -7 -11 -14 -11 -31 -3
-11 6 -30 16 -42 22 -12 6 -23 9 -25 6 -2 -2 33 -24 78 -48 46 -24 111 -65
146 -92 35 -26 68 -44 74 -41 7 4 8 2 4 -4 -8 -13 28 -35 39 -24 5 4 5 2 2 -5
-4 -7 6 -16 26 -23 23 -9 27 -14 15 -17 -10 -2 -43 9 -75 25 -32 16 -139 71
-238 121 -98 50 -185 89 -193 86 -7 -2 -11 -1 -9 3 3 4 -15 17 -39 30 -43 22
-55 14 -26 -17 8 -8 11 -22 9 -31 -7 -25 34 -46 61 -31 26 14 42 14 22 0 -12
-8 -8 -9 15 -5 27 4 26 3 -7 -11 -21 -9 -38 -20 -38 -24 0 -5 -8 -9 -18 -9 -9
0 -23 -9 -30 -20 -11 -18 -10 -20 12 -20 13 0 27 6 29 13 3 6 6 2 6 -10 1 -19
-4 -23 -28 -23 -16 0 -32 -6 -34 -12 -4 -10 -6 -10 -6 0 -1 7 -5 10 -11 7 -12
-7 -73 87 -88 135 -20 66 -24 110 -10 110 7 1 2 7 -12 15 -32 18 -46 19 -31 1
17 -20 -8 -105 -36 -124 -27 -17 -29 -39 -7 -63 14 -15 14 -19 -5 -36 -19 -17
-19 -21 -6 -39 17 -23 19 -44 4 -44 -5 0 -7 6 -3 13 6 9 5 9 -8 0 -8 -7 -19
-9 -24 -5 -4 4 -2 -1 5 -10 7 -10 18 -15 23 -12 6 4 5 -3 -1 -15 -7 -11 -17
-20 -23 -18 -7 1 -12 -5 -13 -13 0 -22 -37 -25 -52 -4 -7 10 -13 28 -13 41 0
14 -6 23 -15 23 -12 0 -13 4 -3 25 9 20 8 28 -6 44 -13 15 -14 20 -4 23 11 4
11 11 1 40 -17 46 -16 61 2 54 20 -7 21 37 1 53 -18 15 -27 51 -13 51 9 0 9 2
0 8 -6 4 -19 33 -28 65 -16 56 -35 76 -35 37z m994 -195 c-4 -8 -12 -15 -20
-15 -20 0 -17 18 4 23 9 3 18 5 19 6 1 0 0 -6 -3 -14z m-205 -47 c-5 -10 -16
-15 -24 -12 -27 11 -18 30 14 30 15 0 17 -4 10 -18z m-420 -103 c42 -50 43
-54 27 -115 -3 -8 -5 -17 -5 -20 -1 -3 -5 0 -9 7 -5 8 -12 9 -22 2 -13 -8 -13
-10 0 -20 12 -8 10 -10 -10 -5 -14 3 -29 6 -35 6 -5 0 -3 5 5 10 13 8 12 10
-5 11 -11 1 -5 4 12 8 33 6 33 6 18 35 -8 15 -13 32 -10 36 3 5 0 10 -7 12 -8
3 -9 6 -1 11 6 4 25 -6 42 -22 53 -50 37 -17 -34 67 -16 19 -25 33 -18 31 6
-2 30 -26 52 -54z m591 -15 c8 -5 11 -10 5 -10 -5 0 -17 5 -25 10 -8 5 -10 10
-5 10 6 0 17 -5 25 -10z m-890 -10 c0 -5 -8 -10 -17 -10 -15 0 -16 2 -3 10 19
12 20 12 20 0z m410 -5 c0 -8 -4 -15 -10 -15 -5 0 -10 7 -10 15 0 8 5 15 10
15 6 0 10 -7 10 -15z m-53 -37 c-3 -8 -6 -5 -6 6 -1 11 2 17 5 13 3 -3 4 -12
1 -19z m-372 2 c3 -5 1 -10 -4 -10 -6 0 -11 5 -11 10 0 6 2 10 4 10 3 0 8 -4
11 -10z m185 -33 c0 -2 -9 -14 -20 -27 -11 -12 -18 -26 -15 -30 2 -3 -2 -7
-10 -7 -8 0 -13 2 -11 5 3 2 1 15 -5 28 -8 22 -7 24 8 16 11 -7 21 -5 31 4 13
14 22 18 22 11z m-193 -29 c-3 -8 -6 -5 -6 6 -1 11 2 17 5 13 3 -3 4 -12 1
-19z m263 -58 c-4 -3 -10 -19 -13 -35 -2 -19 -5 -9 -6 24 -1 50 0 53 13 35 8
-10 11 -21 6 -24z"/>
<path d="M2917 2839 c7 -7 15 -10 18 -7 3 3 -2 9 -12 12 -14 6 -15 5 -6 -5z"/>
<path d="M6300 2821 c-8 -5 -56 -23 -107 -40 -121 -41 -163 -59 -163 -70 0 -5
34 -42 76 -84 67 -65 76 -79 70 -101 -8 -32 -69 -75 -119 -83 l-38 -6 101 -96
c77 -74 100 -102 100 -122 0 -34 -25 -55 -82 -69 -27 -7 -48 -15 -48 -19 0 -3
36 -40 80 -81 68 -64 80 -80 80 -108 0 -17 -1 -32 -2 -32 -2 0 -28 -9 -58 -19
l-55 -18 31 -16 c16 -8 49 -34 73 -57 37 -37 47 -41 75 -36 45 9 118 57 147
97 19 28 25 50 29 129 4 52 5 96 5 98 -1 1 -22 -7 -46 -18 -56 -25 -69 -25
-141 2 -107 38 -110 84 -12 159 32 24 59 49 61 56 4 10 -27 24 -89 37 -15 4
-35 18 -44 31 -16 24 -15 27 1 45 10 11 44 39 76 62 33 24 59 48 59 54 0 12
-42 34 -65 34 -22 0 -55 37 -55 61 0 13 25 44 66 82 75 70 104 115 82 128 -17
11 -69 11 -88 0z"/>
<path d="M3034 2785 c11 -8 26 -15 33 -15 7 0 13 -4 13 -8 0 -4 10 -8 21 -9
30 -3 15 9 -39 29 -35 13 -42 14 -28 3z"/>
<path d="M2460 2771 c0 -5 9 -11 21 -14 16 -4 18 -3 8 9 -13 16 -29 19 -29 5z"/>
<path d="M2585 2720 c3 -5 14 -10 23 -10 15 0 15 2 2 10 -20 13 -33 13 -25 0z"/>
<path d="M3372 2715 c-15 -8 -19 -14 -10 -17 7 -3 21 4 31 14 19 21 12 22 -21
3z"/>
<path d="M2800 2706 c0 -2 7 -7 16 -10 8 -3 12 -2 9 4 -6 10 -25 14 -25 6z"/>
<path d="M2846 2678 c3 -4 11 -5 19 -1 21 7 19 12 -4 10 -11 0 -18 -5 -15 -9z"/>
<path d="M3411 2672 c11 -8 23 -11 26 -8 4 3 0 6 -8 7 -8 0 -6 4 6 9 16 6 14
8 -13 7 -31 0 -31 -1 -11 -15z"/>
<path d="M3450 2646 c0 -2 17 -14 37 -26 30 -17 34 -18 22 -4 -12 16 -12 17 3
11 10 -3 20 -3 22 2 3 4 0 8 -7 9 -7 1 -27 4 -44 6 -18 3 -33 4 -33 2z"/>
<path d="M4074 2594 c-18 -14 -18 -15 4 -4 12 6 22 13 22 15 0 8 -5 6 -26 -11z"/>
<path d="M4506 2594 c-5 -13 -3 -14 6 -6 7 5 22 12 33 15 16 4 14 5 -6 6 -17
1 -29 -5 -33 -15z"/>
<path d="M4458 2563 c7 -3 16 -2 19 1 4 3 -2 6 -13 5 -11 0 -14 -3 -6 -6z"/>
<path d="M3918 2514 c-38 -20 -36 -28 2 -9 17 9 30 18 30 20 0 7 -1 6 -32 -11z"/>
<path d="M5284 2493 c9 -16 -24 -32 -153 -77 -135 -47 -201 -83 -201 -109 0
-29 39 -156 63 -202 11 -22 35 -59 53 -83 41 -54 80 -177 63 -198 -6 -8 -17
-14 -23 -14 -7 0 -17 -5 -24 -12 -10 -10 -1 -23 39 -64 56 -57 57 -76 5 -104
-14 -7 -26 -16 -26 -20 0 -4 18 -23 40 -44 22 -20 40 -40 40 -44 0 -4 -9 -22
-20 -40 -24 -39 -26 -70 -5 -79 17 -6 49 3 270 73 78 24 146 44 152 44 26 0
43 32 43 81 0 27 -2 49 -4 49 -2 0 -33 -7 -68 -17 -85 -22 -232 -22 -275 0
-18 10 -37 27 -44 38 -9 18 -2 30 63 97 40 43 77 80 82 84 5 3 -8 10 -30 14
-48 8 -83 26 -107 52 -25 27 -16 43 78 130 l77 72 -43 6 c-49 8 -89 42 -89 76
0 33 24 64 113 148 l79 74 -52 17 c-28 9 -63 27 -77 40 -14 13 -23 19 -19 12z"/>
<path d="M1140 2374 c0 -8 5 -12 10 -9 6 4 8 11 5 16 -9 14 -15 11 -15 -7z"/>
<path d="M3644 2345 c-10 -8 -14 -14 -9 -14 6 0 19 6 29 14 11 8 15 15 10 15
-6 0 -19 -7 -30 -15z"/>
<path d="M3567 2301 c-51 -30 -91 -62 -47 -39 67 37 113 69 98 68 -2 0 -25
-13 -51 -29z"/>
<path d="M3910 2310 c0 -4 5 -11 12 -18 9 -9 9 -12 1 -12 -7 0 -14 4 -18 9 -3
6 -14 9 -25 8 -10 -1 -16 -5 -14 -9 3 -4 -8 -8 -25 -8 -16 0 -34 -7 -38 -15
-5 -8 -23 -15 -40 -17 -21 -1 -33 -8 -37 -21 -2 -10 -9 -16 -15 -12 -7 4 -8 0
-4 -11 4 -12 3 -15 -6 -10 -16 11 -63 -2 -56 -15 4 -6 -9 -7 -36 -3 -31 5 -40
4 -35 -5 4 -6 0 -14 -8 -17 -9 -3 -13 -10 -10 -15 3 -5 0 -9 -7 -9 -7 0 -9 -3
-6 -6 3 -4 2 -15 -3 -25 -12 -22 8 -38 22 -18 7 10 11 11 14 2 8 -19 52 -1
165 68 57 34 133 78 169 97 75 40 107 65 72 55 -12 -3 -22 -1 -22 5 0 5 -11 9
-25 8 -14 0 -25 -3 -25 -6z m-220 -135 c0 -2 -7 -5 -15 -9 -9 -3 -15 0 -15 9
0 9 6 12 15 9 8 -4 15 -7 15 -9z m-95 -55 c3 -5 1 -10 -4 -10 -6 0 -11 5 -11
10 0 6 2 10 4 10 3 0 8 -4 11 -10z"/>
<path d="M927 2276 c-8 -20 2 -27 28 -20 13 3 26 1 29 -5 4 -5 13 -8 21 -4 11
4 13 1 8 -13 -4 -12 -3 -15 5 -10 7 4 12 1 12 -8 0 -8 3 -17 8 -19 4 -3 7 11
7 31 0 34 -2 37 -27 34 -16 -2 -28 1 -28 8 0 6 -4 9 -9 5 -5 -3 -12 -1 -16 5
-9 15 -32 12 -38 -4z"/>
<path d="M3462 2236 c-36 -21 -38 -27 -4 -15 18 6 32 15 32 20 0 5 -1 9 -2 8
-2 -1 -13 -7 -26 -13z"/>
<path d="M4835 2184 c-20 -70 -80 -208 -108 -248 -16 -23 -17 -30 -6 -37 20
-13 28 -11 65 11 l33 21 -9 -31 c-13 -45 -52 -108 -99 -158 l-40 -43 26 -10
c34 -13 57 -4 89 34 l27 32 -7 -29 c-10 -41 -60 -110 -106 -147 -29 -24 -37
-36 -30 -44 20 -24 60 -23 96 1 l34 24 -14 -28 c-17 -32 -77 -91 -128 -125
-29 -19 -34 -26 -22 -31 27 -10 79 -7 130 9 27 8 50 15 52 15 1 0 2 -40 2 -89
0 -50 4 -92 8 -95 4 -2 26 5 47 18 l40 22 -3 75 -4 76 56 -5 c70 -6 72 6 16
77 l-41 51 38 -20 c87 -46 95 -16 19 73 -29 35 -59 74 -66 87 -11 21 -11 22 6
16 11 -5 36 -10 57 -13 48 -7 48 6 -3 67 -36 43 -98 160 -85 160 3 0 22 -7 42
-15 20 -9 45 -13 55 -9 16 5 13 16 -36 107 -29 56 -63 131 -75 167 -32 98 -36
101 -56 34z"/>
<path d="M1050 2222 c0 -7 4 -12 10 -12 5 0 7 -6 4 -14 -3 -8 0 -17 7 -22 8
-5 10 -3 4 6 -6 9 -4 11 4 6 7 -5 10 -14 7 -22 -5 -12 -2 -12 17 -3 21 12 21
11 7 -7 -8 -10 -28 -31 -44 -46 -39 -36 -26 -36 28 1 70 49 74 57 30 76 -21 9
-46 23 -56 32 -11 10 -18 12 -18 5z"/>
<path d="M3475 2210 c-3 -5 -2 -10 4 -10 5 0 13 5 16 10 3 6 2 10 -4 10 -5 0
-13 -4 -16 -10z"/>
<path d="M3390 2195 c-14 -7 -24 -17 -23 -22 1 -4 -8 -18 -19 -30 l-21 -23 25
0 c13 0 25 -6 25 -13 0 -9 -15 -13 -47 -12 -27 0 -47 5 -47 11 0 6 10 10 21 8
12 -3 15 -1 8 2 -9 4 -4 12 18 26 18 10 30 21 27 24 -5 5 -287 -176 -287 -185
0 -3 24 -16 53 -27 28 -12 103 -43 165 -69 l114 -47 66 33 c37 18 69 35 72 38
3 3 22 15 43 25 38 19 51 42 20 33 -47 -13 -48 -13 -45 16 3 24 0 27 -27 27
-23 0 -31 5 -32 18 0 14 -2 14 -9 -3 -6 -14 -9 -3 -11 40 l-4 60 -48 5 c-26 3
-47 8 -47 13 0 4 0 14 0 22 0 24 36 37 54 19 10 -10 16 -11 16 -3 0 8 5 8 17
-2 15 -13 15 -12 2 9 -8 12 -15 18 -17 12 -2 -6 -10 -6 -20 -1 -11 6 -26 5
-42 -4z m-208 -162 c-6 -2 -10 -8 -8 -12 3 -4 -1 -8 -9 -8 -8 0 -15 4 -15 8 0
8 19 17 35 17 6 0 4 -2 -3 -5z m358 -43 c0 -5 -7 -10 -16 -10 -8 0 -12 5 -9
10 3 6 10 10 16 10 5 0 9 -4 9 -10z"/>
<path d="M3753 2089 c-35 -16 -63 -32 -63 -35 0 -3 5 -2 10 1 14 9 13 -8 -2
-23 -7 -7 -8 -12 -2 -12 5 0 2 -5 -6 -11 -11 -8 -9 -9 10 -3 30 8 45 18 99 66
64 59 51 64 -46 17z"/>
<path d="M1931 2047 c-13 -21 -12 -21 5 -5 10 10 16 20 13 22 -3 3 -11 -5 -18
-17z"/>
<path d="M2581 1984 c0 -11 3 -14 6 -6 3 7 2 16 -1 19 -3 4 -6 -2 -5 -13z"/>
<path d="M3660 1990 c0 -5 5 -10 11 -10 5 0 7 5 4 10 -3 6 -8 10 -11 10 -2 0
-4 -4 -4 -10z"/>
<path d="M1570 1912 c0 -59 16 -108 38 -117 13 -5 12 -1 -4 16 -11 13 -15 23
-8 26 6 2 8 21 4 53 -4 30 -3 47 3 43 5 -3 8 0 5 8 -3 8 -12 15 -21 17 -14 3
-17 -5 -17 -46z"/>
<path d="M1620 1942 c0 -5 14 -7 30 -4 17 2 30 6 30 8 0 2 -13 4 -30 4 -16 0
-30 -4 -30 -8z"/>
<path d="M1860 1699 c-6 -11 -10 -25 -8 -30 2 -5 8 4 15 21 13 34 9 40 -7 9z"/>
<path d="M2984 1685 c-3 -8 -2 -19 2 -26 4 -7 3 -9 -4 -5 -13 8 -36 -30 -28
-49 3 -10 0 -12 -12 -8 -12 5 -9 -1 8 -19 17 -19 27 -23 32 -15 5 8 8 8 8 -3
0 -17 68 -53 90 -47 8 2 11 2 7 -1 -5 -2 1 -11 12 -19 12 -8 26 -11 33 -7 7 4
8 3 4 -4 -4 -7 -1 -12 9 -12 9 0 29 -7 45 -15 17 -9 30 -11 30 -5 0 5 -6 10
-12 10 -8 0 -9 3 -3 8 6 4 11 17 12 28 2 18 -2 21 -20 17 -21 -5 -21 -5 -3 9
19 15 19 15 0 26 -12 7 -14 12 -5 12 10 0 11 3 2 14 -10 11 -8 15 6 18 11 3
-21 24 -88 56 -58 29 -109 52 -113 52 -3 0 -9 -7 -12 -15z m54 -41 c-29 -15
-39 -30 -14 -21 9 4 14 -2 14 -19 0 -20 -6 -24 -29 -24 -16 0 -32 -1 -36 -2
-3 -2 -7 8 -8 21 -2 21 0 22 10 7 13 -17 45 -22 45 -6 0 5 -7 7 -15 3 -13 -5
-14 -2 -4 20 11 24 26 33 54 35 6 1 -2 -6 -17 -14z m88 -31 c-7 -7 -26 7 -26
19 0 6 6 6 15 -2 9 -7 13 -15 11 -17z m-36 -39 c0 -21 -27 -17 -33 5 -3 14 0
17 14 14 11 -3 19 -12 19 -19z m70 -19 c-7 -9 -15 -13 -19 -10 -3 3 1 10 9 15
21 14 24 12 10 -5z m20 -22 c-8 -3 -24 -10 -35 -15 -20 -9 -20 -9 -1 6 11 9
27 16 35 15 14 0 14 -1 1 -6z m10 -53 c0 -5 -4 -10 -9 -10 -6 0 -13 5 -16 10
-3 6 1 10 9 10 9 0 16 -4 16 -10z"/>
<path d="M3240 1580 c8 -5 20 -10 25 -10 6 0 3 5 -5 10 -8 5 -19 10 -25 10 -5
0 -3 -5 5 -10z"/>
<path d="M3290 1545 c7 -8 18 -15 25 -15 7 0 18 -7 25 -15 7 -8 20 -15 29 -15
24 1 -26 40 -50 40 -10 0 -19 5 -19 10 0 6 -5 10 -11 10 -8 0 -8 -5 1 -15z"/>
<path d="M3248 1538 c5 -5 16 -8 23 -6 8 3 3 7 -10 11 -17 4 -21 3 -13 -5z"/>
<path d="M2477 1503 c-12 -11 -8 -25 5 -17 7 4 8 3 4 -4 -10 -17 -26 -15 -26
3 0 8 -7 15 -15 15 -8 0 -15 -6 -15 -12 0 -10 -3 -9 -9 1 -7 11 -9 11 -14 0
-4 -11 -6 -11 -6 -1 -1 10 -9 8 -28 -6 -16 -11 -45 -25 -66 -32 -51 -16 -36
-31 37 -35 l56 -4 -4 27 c-5 24 -4 25 8 10 13 -18 32 -25 22 -9 -4 5 1 8 10 7
8 -1 20 -9 25 -17 5 -8 9 -9 9 -3 0 5 9 20 20 32 25 26 12 71 -13 45z"/>
<path d="M3240 1504 c0 -10 28 -34 39 -34 6 0 11 -5 11 -11 0 -5 4 -8 10 -4
15 9 0 35 -21 35 -10 0 -19 5 -19 10 0 6 -4 10 -10 10 -5 0 -10 -3 -10 -6z"/>
<path d="M3310 1500 c0 -5 5 -10 11 -10 5 0 7 5 4 10 -3 6 -8 10 -11 10 -2 0
-4 -4 -4 -10z"/>
<path d="M2945 1471 c-6 -11 9 -23 19 -14 9 9 7 23 -3 23 -6 0 -12 -4 -16 -9z"/>
<path d="M3001 1448 c-1 -10 -6 -18 -11 -18 -7 0 -7 -6 -1 -18 5 -10 8 -27 6
-38 -2 -10 -4 -25 -4 -32 -1 -7 -6 -10 -11 -7 -6 4 -9 1 -8 -7 2 -7 -3 -12 -9
-10 -7 1 -13 -2 -13 -8 0 -15 16 -12 34 5 8 8 18 15 23 15 4 0 19 9 33 20 16
12 41 20 68 20 23 0 42 5 42 10 0 7 6 7 20 0 11 -6 20 -8 20 -5 0 11 -111 55
-122 49 -6 -4 -8 -2 -4 4 3 6 2 13 -4 17 -5 3 -10 0 -10 -7 0 -10 -2 -10 -9 1
-5 7 -13 11 -19 7 -6 -3 -13 0 -15 6 -3 8 -6 6 -6 -4z m33 -49 c14 -17 15 -24
5 -33 -9 -8 -10 -8 -4 3 6 11 4 13 -8 8 -12 -4 -14 -2 -10 10 3 8 0 19 -8 24
-8 5 -9 9 -4 9 6 0 19 -10 29 -21z m-14 -43 c0 -3 -4 -8 -10 -11 -5 -3 -10 -1
-10 4 0 6 5 11 10 11 6 0 10 -2 10 -4z"/>
<path d="M3230 1441 c0 -5 7 -12 16 -15 24 -9 27 -7 10 9 -17 17 -26 19 -26 6z"/>
<path d="M3286 1423 c-6 -14 -5 -15 5 -6 7 7 10 15 7 18 -3 3 -9 -2 -12 -12z"/>
<path d="M3225 1351 c-4 -7 1 -8 11 -4 13 5 15 3 9 -7 -6 -10 -4 -12 9 -7 11
4 34 -3 60 -18 24 -14 49 -25 57 -25 15 1 -81 53 -118 64 -12 4 -24 2 -28 -3z"/>
<path d="M3035 1320 c-3 -5 -1 -10 4 -10 6 0 11 5 11 10 0 6 -2 10 -4 10 -3 0
-8 -4 -11 -10z"/>
<path d="M3031 1284 c0 -11 3 -14 6 -6 3 7 2 16 -1 19 -3 4 -6 -2 -5 -13z"/>
<path d="M3243 1250 c-48 -20 -47 -80 1 -80 26 0 36 17 36 61 0 31 -3 33 -37
19z"/>
<path d="M3010 1241 c0 -6 4 -11 9 -11 5 0 12 -8 14 -17 4 -15 5 -15 6 -2 0 9
-6 22 -14 29 -10 9 -15 9 -15 1z"/>
<path d="M2995 1186 c-15 -23 -66 -42 -130 -49 l-30 -3 38 -11 c29 -9 43 -9
62 1 14 7 22 16 18 19 -3 4 0 7 7 7 7 0 22 8 33 18 19 16 19 16 12 -8 -4 -14
-13 -28 -19 -32 -8 -6 -8 -8 1 -8 7 0 17 8 22 18 6 9 11 13 11 8 0 -5 8 -2 17
5 15 12 16 12 9 -6 -4 -11 -4 -16 1 -12 4 5 8 23 9 40 l2 31 -14 -27 c-17 -32
-28 -36 -19 -6 5 16 4 19 -6 14 -9 -6 -11 -3 -6 8 9 24 0 21 -18 -7z"/>
<path d="M3140 1160 c0 -5 5 -10 11 -10 5 0 7 5 4 10 -3 6 -8 10 -11 10 -2 0
-4 -4 -4 -10z"/>
<path d="M3045 1100 c3 -5 8 -10 11 -10 2 0 4 5 4 10 0 6 -5 10 -11 10 -5 0
-7 -4 -4 -10z"/>
<path d="M4325 964 c-55 -25 -134 -59 -175 -76 -41 -16 -156 -71 -255 -122
-99 -51 -196 -99 -215 -107 -19 -7 -60 -27 -90 -44 -158 -90 -154 -87 -137
-97 34 -18 328 100 471 191 34 21 95 55 136 76 41 21 122 65 180 100 58 34
130 76 160 93 80 46 41 38 -75 -14z"/>
</g>
</svg>
